<?xml version="1.0" encoding="UTF-8" standalone="no"?>
<svg
   height="127.99997"
   width="184.83904"
   version="1.1"
   viewBox="0 0 184.83903 127.99996"
   id="svg4"
   sodipodi:docname="shaman_logo.svg"
   xml:space="preserve"
   inkscape:version="1.2.2 (b0a8486541, 2022-12-01)"
   inkscape:export-filename="Brain_Outline_large.png"
   inkscape:export-xdpi="51.098488"
   inkscape:export-ydpi="51.098488"
   xmlns:inkscape="http://www.inkscape.org/namespaces/inkscape"
   xmlns:sodipodi="http://sodipodi.sourceforge.net/DTD/sodipodi-0.dtd"
   xmlns="http://www.w3.org/2000/svg"
   xmlns:svg="http://www.w3.org/2000/svg"><defs
     id="defs8"><filter
       style="color-interpolation-filters:sRGB"
       inkscape:label="Blur"
       id="filter7361"
       x="-0.031757168"
       y="-0.028561596"
       width="1.0631295"
       height="1.0615307"><feGaussianBlur
         stdDeviation="12 12"
         result="blur"
         id="feGaussianBlur7359" /></filter><filter
       style="color-interpolation-filters:sRGB"
       inkscape:label="Blur"
       id="filter7369"
       x="-0.023473682"
       y="-0.021121509"
       width="1.0465626"
       height="1.0466508"><feGaussianBlur
         stdDeviation="8 8"
         result="blur"
         id="feGaussianBlur7367" /></filter><filter
       style="color-interpolation-filters:sRGB"
       inkscape:label="Blur"
       id="filter7373"
       x="-0.01516709"
       y="-0.013681421"
       width="1.0299499"
       height="1.0317703"><feGaussianBlur
         stdDeviation="4 4"
         result="blur"
         id="feGaussianBlur7371" /></filter><filter
       style="color-interpolation-filters:sRGB"
       inkscape:label="Blur"
       id="filter7393"
       x="-0.0018308623"
       y="-0.0022979826"
       width="1.0036616"
       height="1.0050519"><feGaussianBlur
         stdDeviation="1 1"
         result="blur"
         id="feGaussianBlur7391" /></filter><filter
       style="color-interpolation-filters:sRGB"
       inkscape:label="Blur"
       id="filter2985"
       x="-0.019292509"
       y="-0.017550065"
       width="1.0382035"
       height="1.0393672"><feGaussianBlur
         stdDeviation="0.6 0.6"
         result="blur"
         id="feGaussianBlur2983" /></filter><filter
       style="color-interpolation-filters:sRGB"
       inkscape:label="Blur"
       id="filter3731"
       x="-0.01509728"
       y="-0.013739518"
       width="1.0298131"
       height="1.0317463"><feGaussianBlur
         stdDeviation="0.4 0.4"
         result="blur"
         id="feGaussianBlur3729" /></filter><filter
       style="color-interpolation-filters:sRGB"
       inkscape:label="Blur"
       id="filter4461"
       x="-0.010885434"
       y="-0.0099288785"
       width="1.02139"
       height="1.0241248"><feGaussianBlur
         stdDeviation="0.2 0.2"
         result="blur"
         id="feGaussianBlur4459" /></filter><filter
       style="color-interpolation-filters:sRGB"
       inkscape:label="Blur"
       id="filter5933"
       x="-0.00317018"
       y="-0.0039211225"
       width="1.0063397"
       height="1.0104743"><feGaussianBlur
         stdDeviation="0.1 0.1"
         result="blur"
         id="feGaussianBlur5931" /></filter></defs><sodipodi:namedview
     id="namedview6"
     pagecolor="#ffffff"
     bordercolor="#666666"
     borderopacity="1.0"
     inkscape:showpageshadow="2"
     inkscape:pageopacity="0.0"
     inkscape:pagecheckerboard="0"
     inkscape:deskcolor="#d1d1d1"
     showgrid="false"
     inkscape:zoom="6.4688464"
     inkscape:cx="95.921276"
     inkscape:cy="65.544917"
     inkscape:window-width="1920"
     inkscape:window-height="1011"
     inkscape:window-x="0"
     inkscape:window-y="0"
     inkscape:window-maximized="1"
     inkscape:current-layer="svg4" /><path
     id="path1489-6-7-9-3"
     style="fill:none;stroke:#dadb24;stroke-width:1.53385;stroke-linecap:butt;stroke-linejoin:miter;stroke-dasharray:none;stroke-opacity:1;filter:url(#filter2985)"
     d="M 81.633715,0.86194938 C 80.563214,0.81173902 79.495619,0.75760003 78.386053,0.75880267 l 9.82e-4,-0.005011 -0.248932,0.001002 c -0.871739,0.005011 -1.759241,0.0299659 -2.665535,0.0819802 -1.105708,0.0634394 -2.217389,-0.0513128 -3.353693,0 -9.602,0.43132793 -18.578969,2.72360603 -25.640747,5.97232633 -3.930218,1.8079937 -7.605833,3.1630018 -10.88349,5.2853368 -3.447478,2.231685 -6.674755,4.807025 -9.268253,7.690823 -6.457582,0.666776 -9.952513,5.089105 -13.088001,9.042865 -0.44525,0.562306 -1.060379,1.086578 -1.484904,1.665491 -0.620972,0.844436 -0.980315,1.82457 -1.57958,2.634851 C 9.1266299,34.546944 7.936859,35.788744 6.820969,37.2248 4.5667,40.126167 2.304173,44.878471 1.9545917,49.153417 c -0.1066222,0.08298 -0.1903545,0.182612 -0.2296401,0.29097 -0.051111,0.142533 -0.058026,0.28217 -0.063839,0.412987 -0.011726,0.261635 -0.016235,0.472389 -0.1604293,0.630546 l -0.05031,0.05472 -9.821e-4,0.07416 c -0.022148,2.191646 -0.7854705,4.311947 -0.69088453,6.93901 0.0334729,0.927429 0.27149123,1.848994 0.29598453,2.731514 0.095408,3.439299 0.3335664,6.196329 1.2957417,8.751134 1.2733529,3.379738 2.7470922,6.323067 4.4616459,8.920826 l 0.00902,0.01373 0.011325,0.01163 c 2.8664822,3.068304 6.5598452,5.997011 12.3880762,5.919881 0.800664,-0.01072 1.592398,-0.216726 2.361453,-0.195249 2.54414,0.07026 5.29958,1.537579 8.19714,1.561011 1.689058,0.01393 3.322175,-0.36388 4.762441,-0.992802 m 2.997157,0.754087 c -0.204646,1.054328 -0.36748,2.129781 -0.43616,3.198651 -0.16981,2.646586 0.162845,5.216164 1.498583,7.109094 0.809553,1.146109 1.864972,1.72882 3.023996,2.394613 3.94011,2.2844 8.836943,3.90497 15.216526,3.44614 0.949237,-0.068 1.574428,-0.29302 2.183114,-0.51938 M 92.143,100.00651 c -0.847295,0.0864 -1.677924,0.12958 -2.398282,0.28887 -1.133358,0.24406 -1.788946,0.77122 -3.286607,0.87859 -1.225599,0.0882 -2.395417,0.098 -3.515285,0.0427 0.552523,0.70504 1.316987,1.31382 2.235548,1.70115 l -0.01002,0.0194 0.187609,0.0684 c 0,0 1.08392,0.4003 1.763139,0.4784 0.331722,0.0391 0.875787,0.01 1.369412,-0.01 0.382062,-0.0196 0.611111,-0.0391 0.73946,-0.0488 3.056506,6.43339 8.226745,10.77782 13.969556,14.50704 3.23816,2.61632 5.96291,5.77927 9.17146,8.48344 l 0.35556,0.30258 2.4405,-6.9577"
     transform="matrix(0.97816936,0,0,0.977671,1.4251451,1.4243622)" /><path
     id="path6830-2-6"
     style="fill:none;stroke:#2524db;stroke-width:1.53385;stroke-linecap:butt;stroke-linejoin:miter;stroke-dasharray:none;stroke-opacity:1;filter:url(#filter4461)"
     d="m 108.55705,93.898831 c -0.30999,-0.01072 -0.64661,0.08388 -1.004,0.247885 -0.71576,0.327039 -1.49572,0.924452 -2.30921,1.35107 -1.13435,0.594536 -2.5352,1.280815 -3.4721,1.667404 -0.22867,0.09451 -0.51775,0.200421 -0.7599,0.299348 0.43386,0.972989 0.70433,2.148362 1.25044,3.130212 0.542,0.96647 1.47977,1.82561 2.66052,2.32349 l -0.01,0.0195 0.1876,0.0684 c 0,0 1.08393,0.4003 1.76315,0.47839 0.33172,0.0391 0.87577,0.01 1.3694,-0.01 0.38206,-0.0195 0.61112,-0.0391 0.73947,-0.0488 3.0565,6.4334 8.22674,10.77782 13.96957,14.50704 3.23815,2.61632 5.96288,5.77927 9.17145,8.48344 l 0.35556,0.30258 2.61405,-7.45267 M 101.88574,0.87785433 c -1.23276,-0.0646421 -2.472448,-0.12055496 -3.755542,-0.1191619 l 9.92e-4,-0.005011 -0.248932,0.001002 c -0.871738,0.005011 -1.759241,0.0299659 -2.665534,0.0819802 -1.105708,0.0634394 -2.217389,-0.0513128 -3.353703,0 -9.60201,0.43132797 -18.578979,2.72360607 -25.640757,5.97232627 -3.930239,1.8079937 -7.605843,3.1630019 -10.8835,5.2853371 -3.447478,2.231684 -6.674746,4.807025 -9.268253,7.690823 -6.457583,0.666775 -9.952503,5.089105 -13.087991,9.042865 -0.44526,0.562306 -1.06039,1.086578 -1.484904,1.66549 -0.620982,0.844436 -0.980325,1.82457 -1.57958,2.634851 -1.04728,1.418478 -2.237051,2.660277 -3.352941,4.096334 -2.254279,2.901366 -4.516786,7.653671 -4.866368,11.928617 -0.106632,0.08298 -0.190354,0.182611 -0.22965,0.290969 -0.05111,0.142534 -0.05803,0.282171 -0.06384,0.412988 -0.01173,0.261635 -0.01624,0.472398 -0.160419,0.630546 l -0.05031,0.05472 -9.92e-4,0.07416 c -0.02215,2.191647 -0.78547,4.311947 -0.690874,6.939011 0.03347,0.927429 0.271491,1.848994 0.295974,2.731514 0.09551,3.439299 0.333587,6.196328 1.295742,8.751133 1.273363,3.379739 2.747092,6.323068 4.461656,8.920827 l 0.009,0.01373 0.01142,0.01163 c 2.866473,3.068314 6.559835,5.997011 12.388067,5.919881 0.800654,-0.01072 1.592398,-0.216716 2.361453,-0.195239 2.54414,0.07025 5.29957,1.537569 8.19713,1.561001 1.793486,0.01483 3.366461,-1.423749 4.948065,-0.919762 1.08809,0.346732 -0.320838,2.046328 -0.393276,3.173655 -0.16981,2.646587 0.162835,5.216165 1.498583,7.109095 0.809553,1.146109 1.864962,1.72881 3.023995,2.394603 3.940111,2.284401 8.836944,3.904981 15.216527,3.446161 1.093581,-0.0784 1.764071,-0.36156 2.473486,-0.613946"
     transform="matrix(0.97816936,0,0,0.977671,1.4251451,1.4243622)" /><path
     id="path1533-0-0"
     style="fill:#24db80;fill-opacity:1;stroke:#24db80;stroke-width:0.51128919;stroke-dasharray:none;stroke-opacity:1;filter:url(#filter5933)"
     d="m 108.00364,0.7479388 -0.24878,0.001002 c -0.87175,0.005011 -1.75928,0.0299659 -2.66559,0.0819802 -1.10572,0.0634394 -2.21736,-0.0512126 -3.35368,0 -9.60199,0.4313282 -18.579059,2.7236163 -25.640857,5.9723466 -3.930239,1.8079937 -7.605773,3.1629116 -10.88344,5.2852564 -3.447478,2.231685 -6.674806,4.807005 -9.268304,7.690823 -6.457602,0.666766 -9.952473,5.089135 -13.087981,9.042905 -0.445249,0.562316 -1.060309,1.086548 -1.484823,1.665461 -0.620982,0.844446 -0.980335,1.82459 -1.5796,2.634871 -1.04727,1.418477 -2.237011,2.660257 -3.352901,4.096303 -2.254279,2.901387 -4.516866,7.653722 -4.866448,11.928667 -0.106622,0.08298 -0.190344,0.182562 -0.22963,0.29092 -0.05111,0.142533 -0.05793,0.28214 -0.06374,0.412947 -0.01173,0.261635 -0.01634,0.472509 -0.160429,0.630656 l -0.05031,0.05472 -9.93e-4,0.07416 c -0.02215,2.191657 -0.78546,4.312047 -0.690874,6.939111 0.03347,0.927428 0.271491,1.848994 0.295974,2.731513 0.09551,3.439299 0.333597,6.196199 1.295772,8.751014 1.273353,3.379738 2.747122,6.323107 4.461676,8.920877 l 0.009,0.01363 0.01132,0.01172 c 2.866483,3.068324 6.559785,5.997041 12.388017,5.919912 0.800664,-0.01072 1.592438,-0.216727 2.361503,-0.19525 2.54414,0.07026 5.29956,1.53758 8.19714,1.561011 3.307282,0.02736 6.411202,-1.434092 8.240575,-3.38072 0.200407,-0.212818 0.301106,-0.469572 0.420566,-0.661885 0.02666,-0.04299 0.05723,-0.06935 0.08388,-0.104459 -0.664417,2.13406 -1.263672,4.648857 -1.421636,7.10702 -0.16981,2.646587 0.162895,5.216054 1.498643,7.108984 0.809543,1.146099 1.864922,1.72892 3.023946,2.394714 3.94012,2.284391 8.836883,3.904931 15.216486,3.446101 1.497661,-0.10738 2.153199,-0.63454 3.286557,-0.87861 1.103743,-0.24406 2.461219,-0.205 3.751549,-0.488111 2.239086,-0.497884 5.259083,-1.708415 7.534692,-2.648531 0.9369,-0.38659 2.33781,-1.072888 3.47216,-1.667415 0.81349,-0.426618 1.59342,-1.024081 2.30917,-1.35112 0.35739,-0.16401 0.69405,-0.258698 1.00404,-0.247965 0.31,0.01072 0.60025,0.119102 0.90135,0.397334 0.76414,0.707775 1.62403,1.977857 2.12654,3.062461 0.46105,0.990877 0.72564,2.220941 1.29034,3.236217 0.54201,0.96648 1.47989,1.82557 2.66064,2.32345 l -0.01,0.0195 0.18758,0.0683 c 0,0 1.084,0.40025 1.76323,0.47836 0.33171,0.0391 0.87568,0.01 1.36931,-0.01 0.38206,-0.0195 0.61111,-0.0391 0.73945,-0.0488 3.05652,6.43341 8.22675,10.77767 13.96958,14.50691 3.23818,2.61632 5.96298,5.77934 9.17155,8.48353 l 0.35541,0.30263 -0.0297,-0.4686 c -0.0197,-0.3905 -0.24681,-0.70289 -0.5035,-0.94695 -0.25668,-0.24406 -0.54298,-0.44907 -0.73056,-0.63455 -3.36652,-3.32898 -6.7133,-6.84345 -10.88937,-9.29381 -2.97753,-2.21606 -6.23349,-5.35955 -8.53872,-8.63972 -0.81349,-1.16172 -2.00115,-2.37225 -2.24006,-3.44612 -0.16981,-0.76147 -0.01,-1.2984 0.35343,-1.69866 0.36331,-0.3905 0.95566,-0.66384 1.6645,-0.80051 0.11255,-0.0293 0.33665,0.0391 0.59137,0.0488 0.12736,0 0.27051,-0.01 0.40674,-0.0781 0.13624,-0.0781 0.25077,-0.20501 0.32876,-0.38074 l 0.11452,-0.26358 -0.28433,-0.01 h -0.003 0.003 c -9.8e-4,0 -0.008,-0.01 -0.0316,-0.0195 -0.0523,-0.0391 -0.18165,-0.09762 -0.30999,-0.0781 l -0.003,0.01 h -0.003 c -0.80856,0.16595 -1.69018,0.27334 -2.38717,0.63455 -0.67034,0.34167 -1.1462,0.96647 -1.12547,1.98176 -0.078,0.0488 -0.18165,0.0879 -0.32381,0.10738 -0.1708,0.0195 -0.37318,0.0293 -0.5736,0.0585 -0.41562,0.0196 -0.85002,0.0196 -1.01094,0 -0.29321,-0.0293 -0.8283,-0.18548 -1.19951,-0.30263 -1.00206,-0.41978 -1.80864,-1.03482 -2.55401,-1.72794 -1.08105,-2.206298 -1.88368,-4.963187 -3.57681,-6.655988 -0.20238,-0.202084 -0.47092,-0.338754 -0.697,-0.481288 -0.15203,-0.09571 -0.25965,-0.19134 -0.3406,-0.285066 3.78512,-1.820682 7.45275,-4.165606 10.96539,-5.941389 -0.11946,0.594527 -0.0582,1.089485 0.15894,1.48291 0.26854,0.489095 0.74143,0.814179 1.27553,1.06507 1.02476,0.481288 2.30523,0.729253 3.08417,1.184183 -0.32284,1.58346 -0.009,2.835001 0.5805,3.908861 0.60914,1.108036 1.49174,2.039363 2.24599,3.028296 0.49659,0.654068 0.97442,1.33744 1.4404,1.903654 0.46894,0.575987 0.9132,1.044567 1.39695,1.278867 1.34266,0.65408 2.84328,0.24406 4.18594,-0.1562 -0.47388,1.11292 -1.16495,2.18678 -0.93789,3.62185 0.13822,0.90791 0.67133,1.5327 1.32292,2.00129 0.62197,0.45884 1.34266,0.78099 1.95475,1.13244 0.56274,3.01658 3.02099,5.77934 6.39738,5.62314 1.27355,-0.0585 2.32993,-0.56622 3.40598,-1.12268 0.12838,0.14644 0.20735,0.3124 0.25676,0.52718 0.0591,0.25382 0.0792,0.55645 0.19743,0.85909 0.35537,0.96647 1.03655,1.77675 1.59928,2.57727 0.25676,0.38073 0.49367,0.87861 0.80956,1.30816 0.30607,0.42954 0.71085,0.82004 1.29332,0.92742 l 0.45419,0.0781 -0.25676,-0.38074 c -0.94776,-1.43508 -2.71491,-3.11421 -3.20849,-5.01787 1.03656,0.70289 2.478,1.23006 4.10695,1.5034 1.85604,0.3124 3.91933,0.32216 5.79512,-0.0879 1.75732,-0.3905 3.69234,-1.27888 5.56812,-2.16725 2.00407,-0.94695 3.96874,-1.74747 5.0053,-3.08492 0.92802,-1.19101 1.41177,-2.97754 2.06339,-3.9733 0.93785,-0.53693 2.2016,-1.00553 3.17893,-1.74747 0.95768,-0.71265 1.61912,-1.74747 1.3328,-3.26062 0.90828,-0.419784 1.29332,-1.191019 1.52041,-2.040346 0.24674,-0.902033 0.35537,-1.917324 0.80946,-2.872082 0.25676,-0.528151 0.66154,-0.94598 0.88854,-1.471194 1.29331,-2.999983 0,-6.059518 -1.70792,-8.083266 0.35537,-0.433452 0.45419,-1.012365 0.38504,-1.565891 -0.0692,-0.539857 -0.27641,-1.051411 -0.56273,-1.430194 0.49358,-0.42759 0.86879,-0.866895 1.01682,-1.549285 0.16786,-0.844446 0.0491,-1.564919 -0.28623,-2.159446 -0.33573,-0.594527 -0.86879,-1.06019 -1.49074,-1.438001 -0.95769,-0.585747 -2.1128,-0.941098 -3.17903,-1.242751 2.2016,-0.265534 4.21558,-0.647242 6.38751,-1.158797 2.17203,-0.513498 4.91651,-1.013337 6.30854,-2.394713 1.52041,-1.505359 2.43851,-4.760142 2.5274,-7.354013 0.15795,-4.604921 -0.73059,-8.949189 -1.98442,-12.277194 -1.1945,-3.140562 -2.32987,-6.160069 -3.56396,-8.988235 -0.65152,-1.50634 -1.09578,-3.151296 -2.22134,-4.166587 l -0.0391,-0.04199 -0.0591,-0.008 c -0.4146,-0.05462 -0.79964,-0.142533 -1.17476,-0.240158 0.38504,-1.365752 0.10854,-2.541145 -0.45419,-3.59451 -0.58246,-1.104127 -1.46108,-2.092078 -2.19167,-3.11225 -1.17486,-1.648874 -2.15219,-2.908222 -3.25789,-4.488756 -1.10571,-1.59224 -1.99425,-3.161058 -3.15928,-4.599058 -0.87862,-1.081677 -1.61903,-2.274639 -2.56679,-3.239169 -0.86879,-0.889355 -1.93502,-1.573699 -3.41594,-1.766994 0.35547,-0.457856 0.46401,-1.008456 0.38504,-1.539524 -0.0992,-0.649196 -0.43435,-1.275944 -0.81939,-1.752351 -1.28339,-1.553194 -3.41594,-2.811569 -5.2818,-4.041633 -1.91527,-1.266183 -3.78113,-2.3777259 -6.16041,-3.241795 -2.22134,-0.806282 -4.63019,-1.4450359 -7.0095,-2.2467179 -1.30317,-0.4379426 -2.91239,-1.0691799 -4.51173,-1.4607505 -1.48088,-0.3615948 -2.95188,-0.5177981 -4.20568,-0.1050409 0.0592,-0.4109031 0.0889,-0.8380018 -0.16784,-1.1945254 l -0.0197,-0.018741 -0.0197,-0.015233 C 133.7526,2.5946376 132.173,2.2016939 130.47493,1.9778419 128.76699,1.75399 126.94256,1.7036192 125.36099,1.5157864 l -0.0148,-0.002 h -0.0148 c -6.03611,0.163515 -11.32975,-0.76904463 -17.32828,-0.76255036 l 9.9e-4,-0.005011 z m -0.1392,0.5710751 c 3.72686,-0.00802 7.72029,0.5030557 11.03943,0.7802148 5.31042,0.4434046 11.40273,-0.1467325 15.45045,1.8040852 0.21719,0.5097904 0.14808,0.8477733 -0.0592,1.185255 -0.20732,0.3523243 -0.58248,0.6863886 -0.91814,1.0845036 l 0.24682,0.2967722 c 1.05635,-0.5531357 1.71781,-1.3362669 3.07035,-1.3440841 0.53311,-0.00301 0.99712,0.2630983 1.63883,0.3868904 1.0761,0.2112543 2.07322,0.2620158 3.03086,0.579203 0.7898,0.2613343 1.49074,0.8455183 2.35952,1.1690394 1.88563,0.6982045 3.87005,1.007384 5.94327,1.5673548 1.9745,0.5313678 4.16617,1.9932908 6.07152,3.1032708 1.94493,1.134393 3.91943,2.422053 5.29172,3.777071 0.62196,0.611123 1.4216,1.458506 1.32288,2.722734 -0.54298,0.793685 -1.71784,1.063127 -2.67542,1.658626 l -0.28633,0.180607 0.30607,0.158147 c 0.25666,0.132772 0.52324,0.136681 0.7799,0.07717 0.25666,-0.05953 0.50349,-0.175726 0.75033,-0.294828 0.51332,-0.240158 1.0564,-0.49593 1.6981,-0.444186 1.09579,0.08689 2.00406,0.857134 2.83337,1.848021 0.82931,0.99186 1.54997,2.186777 2.27064,3.059535 1.59939,1.948573 3.18885,4.456535 4.71908,6.72043 0.5035,0.740969 1.14519,1.399927 1.68818,2.151629 0.47393,0.663849 1.12555,1.48291 1.68827,2.306861 0.55281,0.822968 1.02674,1.656671 1.13528,2.299042 0.15794,0.884474 0.02,1.355991 -0.27641,1.695727 -0.28632,0.340709 -0.76015,0.561334 -1.29331,0.829804 l -0.54299,0.272369 0.60222,0.09471 c 0.66144,0.103477 1.18468,-0.135698 1.63887,-0.262607 0.45408,-0.126909 0.80956,-0.177681 1.3328,0.223561 0.39486,0.310443 0.85887,1.223219 1.25383,2.207271 0.40468,0.985025 0.75023,2.039363 1.0563,2.698331 0.78982,1.71525 1.54997,3.788787 2.06339,5.160402 0.98725,2.629008 1.87579,4.941721 2.36936,7.861659 l -0.22709,-0.102506 c -1.45126,-0.672638 -2.74448,-1.482909 -3.6725,-2.630972 -0.93794,-1.148053 -1.52041,-2.636825 -1.54015,-4.710353 v -0.08198 l -0.0591,-0.05662 c -0.48376,-0.460783 -0.93785,-0.980145 -1.46109,-1.444836 -0.5529,-0.895218 -1.07614,-1.822636 -1.65861,-2.699303 -0.22709,-0.493003 -0.35547,-1.118769 -0.49367,-1.746488 -0.12828,-0.570133 -0.26648,-1.139274 -0.52324,-1.624471 0.17769,-0.160101 0.2765,-0.382681 0.32581,-0.611123 0.0691,-0.287993 0.0892,-0.602344 0.11846,-0.8874 l 0.01,-0.127891 -0.10864,-0.06344 c -2.29039,-1.279853 -4.0872,-2.942387 -4.44257,-6.098573 l -0.02,-0.144478 -0.1383,-0.02636 c -0.88843,-0.16401 -1.68817,-0.505691 -2.22124,-1.039695 -0.53316,-0.534004 -0.80956,-1.253495 -0.68118,-2.257071 l 0.02,-0.144487 -0.13831,-0.05953 c -2.13244,-0.941089 -3.39609,-2.781303 -4.93625,-4.430167 -1.51048,-1.621534 -3.31712,-3.037085 -6.43681,-3.09371 -0.2764,-1.054337 -1.01692,-1.654726 -1.6981,-2.219969 -0.70093,-0.582811 -1.34262,-1.131457 -1.51049,-2.169197 0.01,-0.0459 0.02,-0.06835 0.0591,-0.09661 0.0491,-0.03317 0.12838,-0.06544 0.22709,-0.103477 0.0992,-0.03808 0.20736,-0.08108 0.31589,-0.1728 0.0992,-0.0918 0.17769,-0.244056 0.17769,-0.416846 v -0.115203 l -0.0992,-0.05763 c -0.57254,-0.324112 -1.15501,-0.365112 -1.72766,-0.321186 -0.56273,0.0449 -1.11563,0.169874 -1.63887,0.198176 -5.49897,0.297754 -11.62975,-0.970373 -16.70422,-0.193295 -2.28055,0.349498 -4.39326,1.024081 -6.31446,1.732828 1.28935,-1.676204 2.52342,-3.454913 3.08616,-5.888672 l 0.0493,-0.228442 -0.22706,-0.01002 c 0,0.002 -0.01,0 -0.01,0 h 0.01 c 0,-0.002 -0.01,-0.008 -0.0395,-0.02536 -0.0493,-0.03608 -0.17769,-0.0918 -0.30604,-0.07025 l -0.15796,0.02826 V 14.8279 c -0.0197,0.008 -0.0395,0.01363 -0.079,0.03518 -0.0395,0.03227 -0.0987,0.09761 -0.11847,0.175726 l 0.01,-0.02736 c -1.04649,2.656348 -3.13747,5.184805 -5.57203,7.242718 -3.41292,2.884791 -7.89997,6.09662 -13.48386,5.810581 l -0.19745,-0.01072 -0.01,0.196221 c -0.15499,3.12104 -1.28243,5.245338 -2.86894,6.944974 -1.58652,1.699636 -3.64098,2.967763 -5.63424,4.323763 l -0.0938,0.06444 0.009,0.112266 c 0.0118,0.138625 -0.006,0.333874 -0.006,0.527169 -9.8e-4,0.192323 9.9e-4,0.401232 0.15796,0.567197 l 0.0879,0.0927 0.12143,-0.04199 c 2.48787,-0.859088 4.42782,-2.399594 6.09528,-4.048458 1.72275,-1.702562 2.82847,-3.796604 4.04773,-5.940426 0.63085,-0.256744 1.44237,-0.674573 2.24401,-0.917657 0.78093,-0.238203 1.50359,-0.285066 2.03374,0.08198 -0.30704,1.692801 -1.35944,3.14837 -1.55294,4.760142 l -0.0228,0.183534 0.18363,0.03227 c 0.25372,0.0439 0.47881,0.002 0.64962,-0.105442 0.17079,-0.106404 0.28234,-0.265534 0.36232,-0.42759 0.15992,-0.324112 0.22114,-0.697032 0.28926,-0.849327 0.75426,-1.693772 1.83529,-2.870148 2.84228,-4.260313 2.19269,-3.025359 5.07053,-5.017869 8.79738,-6.572045 2.65571,-1.103144 6.09134,-1.921232 9.5171,-2.132106 2.04361,-0.125936 4.15632,0.136681 6.38752,0.292874 0.97733,0.06835 2.12262,-0.08198 3.13943,0.09571 1.68818,0.295801 4.54139,1.480955 5.94325,2.409366 1.01691,0.669692 1.73758,1.986646 1.58946,3.529106 -0.15795,1.694745 -1.32288,4.218322 -2.05347,5.691469 -0.90828,1.840215 -2.32988,3.356317 -2.96175,4.790409 l -0.27641,0.61406 0.56273,-0.37293 c 1.99424,-1.322797 3.51455,-4.585398 4.70915,-7.108002 0.25666,-0.53693 0.42453,-1.278871 0.63188,-1.952472 0.20735,-0.674582 0.47383,-1.266182 0.78982,-1.483891 0.53306,-0.369993 1.16494,-0.318249 1.88561,-0.114211 0.6911,0.198176 1.43151,0.53693 2.14236,0.711674 1.38211,1.092411 2.08304,2.273657 3.51456,3.675538 0.36529,0.362187 0.90827,0.757566 1.38221,1.147082 0.48375,0.388544 0.90827,0.784905 1.04647,1.048484 0.0691,0.12301 0.0892,0.286039 0.0992,0.469572 0.02,0.182561 0.02,0.383663 0.0892,0.580867 0.51342,1.400899 1.81656,2.261941 3.07039,2.796917 0.14812,1.50146 0.77008,2.558724 1.57964,3.404152 0.80946,0.8464 1.77697,1.494625 2.64576,2.221923 -0.0892,4.338406 1.90545,6.680403 3.85029,8.95407 0.01,0.35925 -0.0291,0.774152 0,1.162696 -1.21425,-0.768299 -2.71492,-1.191008 -4.13651,-1.181247 -1.58956,0.01002 -3.10987,0.558408 -4.01815,1.787499 -0.19743,0.26846 -0.5035,0.692151 -0.67136,1.160741 -0.16777,0.467618 -0.19743,1.021154 0.18761,1.431166 l 0.14812,0.147414 0.1382,-0.144478 c 0.31589,-0.311424 0.54298,-0.757565 0.78982,-1.181256 0.24674,-0.423681 0.52324,-0.81906 0.85887,-1.036759 0.8293,-0.53694 2.36936,-0.719491 3.0309,-0.652133 2.02381,0.204038 3.50473,1.658635 5.06453,3.067341 1.54997,1.408717 3.19866,2.77057 5.52864,2.593871 l 0.34555,-0.02536 c 0.15794,1.027989 0.2764,2.132116 0.33563,3.354362 0.12838,2.832075 -0.02,5.164311 -0.68118,7.151929 -0.67136,1.988601 -1.8363,3.070278 -3.44551,3.809292 -1.59938,0.739015 -3.64293,1.114861 -5.98272,1.625433 -4.55122,0.992842 -8.5397,1.058246 -13.29826,1.265211 -4.29456,0.186459 -8.1251,1.543432 -12.2617,2.149674 -3.79106,0.555481 -7.67091,0.774162 -11.43233,1.071916 -5.79516,0.459811 -10.82618,1.729892 -14.89365,4.12656 -1.31699,0.775143 -2.4701,1.693782 -3.75056,2.439632 -2.2766,1.325723 -4.62527,2.564576 -6.91075,3.904952 -2.28351,1.339404 -4.73782,2.457201 -7.09932,3.704833 -4.48803,2.371282 -9.186354,4.680076 -14.564897,5.548936 3.367513,-1.939784 5.513797,-5.061795 7.899973,-7.887035 l -0.232005,-0.303607 c -1.164947,0.510572 -1.773091,1.709397 -2.537225,2.58899 -1.942911,2.234611 -3.966768,4.420406 -6.94333,5.806662 -3.130567,1.464351 -8.996812,1.210531 -12.585467,-0.01002 -2.42469,-0.820042 -4.544316,-1.835323 -6.569165,-2.905285 -3.042696,-2.25218 -3.811771,-6.775101 -2.77812,-11.705106 0.536077,-2.554825 1.705975,-5.248265 2.560927,-7.886063 0.905311,-2.792046 2.054474,-5.19165 3.685405,-6.640384 1.666479,-0.880566 2.683344,-2.384952 4.49989,-3.198159 0.935908,-0.418811 2.010037,-0.452004 3.053559,-0.875685 1.31798,-0.534986 2.704079,-1.203706 3.639005,-2.208264 0.940848,0.308498 1.771126,0.246021 2.545132,0.008 0.810535,-0.248947 1.57071,-0.66873 2.406911,-1.022126 2.019919,-0.852254 3.790054,-1.618608 5.645103,-2.644633 1.626001,-0.899116 3.042696,-1.61079 3.96282,-3.105415 0.515344,-0.01363 0.968494,-0.06544 1.361414,-0.214772 0.42156,-0.160102 0.77696,-0.431499 1.06031,-0.839565 0.25273,-0.364141 0.31493,-0.81419 0.42748,-1.012366 0.0572,-0.09962 0.0829,-0.123 0.15993,-0.126908 0.078,-0.005 0.25175,0.04099 0.52324,0.216726 l 0.0553,0.03518 0.0651,-0.004 c 5.73493,-0.354378 9.92581,-2.316621 11.9398,-6.416823 1.03168,0.572077 2.44147,0.826877 3.88286,0.808327 1.5253,-0.01854 3.07034,-0.352425 4.23628,-0.97819 0.23793,0.310442 0.45315,0.671646 0.71279,1.01919 -0.42648,0.560361 -0.89148,1.198825 -0.74339,2.370309 l 0.0187,0.152295 0.15401,0.01754 c 0.70785,0.08108 1.22321,-0.07416 1.59342,-0.368039 0.33369,-0.265534 0.53805,-0.62772 0.71674,-0.993814 0.64172,0.04199 1.13534,-0.08008 1.46706,-0.313369 0.35639,-0.249919 0.52225,-0.630656 0.46302,-0.989906 -0.0592,-0.358277 -0.33764,-0.676537 -0.77006,-0.829804 -0.39293,-0.138624 -0.91715,-0.139607 -1.54998,0.04099 -0.13525,-0.358277 -0.32382,-0.683372 -0.60124,-0.934263 3.21349,-2.382025 5.90474,-6.439273 5.02609,-11.899383 0.30605,-0.963548 0.3949,-2.199464 0.3949,-3.234279 l -0.01,-0.229414 -0.22708,0.03808 c -0.20732,0.03317 -0.36528,0.13667 -0.48375,0.263579 -0.1086,0.127891 -0.17771,0.273351 -0.23694,0.412948 -0.0889,0.217708 -0.16783,0.393424 -0.26656,0.517407 -0.0592,-0.05853 -0.10859,-0.133744 -0.1777,-0.239176 -0.0987,-0.167909 -0.24681,-0.390498 -0.52324,-0.463709 l -0.0297,-0.006 h -0.0197 c -0.26558,-9.72e-4 -0.44623,0.09471 -0.58346,0.152295 -0.13821,0.05662 -0.23793,0.0927 -0.46796,0.0469 l -0.53509,-0.106414 0.34258,0.419782 c 1.59933,1.957362 1.67831,5.658287 0.56372,8.295112 0.0247,-0.05763 -0.0108,-0.004 -0.0977,0.03909 -0.0859,0.04299 -0.21818,0.08589 -0.2942,0.246993 -0.071,0.151312 -0.0366,0.296772 -0.0168,0.381709 0.0197,0.08589 0.0168,0.107386 0.0197,0.100551 -0.82731,1.636176 -2.19959,3.286022 -3.98849,4.319854 -1.77902,1.027007 -3.9648,1.451671 -6.4882,0.669702 -0.24485,-0.239176 -0.45907,-0.539857 -0.74143,-0.812225 -0.2942,-0.283112 -0.67725,-0.526197 -1.2232,-0.575014 l -0.1629,-0.01463 -0.0444,0.156203 c -1.45719,5.053988 -6.85053,7.913393 -13.29431,6.59742 l -0.31592,-0.06444 0.0859,0.307516 c 0.25077,0.898144 0.0208,1.392119 -0.45512,1.736737 -0.47585,0.344607 -1.242943,0.506663 -2.031751,0.554498 l -0.154015,0.009 -0.02766,0.150341 c -0.200416,1.070933 -0.981326,1.935884 -2.059404,2.68466 -1.078078,0.748776 -2.442459,1.370643 -3.750568,1.955408 -0.972437,0.435397 -1.862936,0.843464 -2.860058,1.268137 -0.902345,0.384635 -1.808638,0.770253 -2.602397,0.866895 -0.793748,0.09571 -1.452242,-0.06544 -1.997199,-0.802463 l -0.221152,-0.299709 -0.124391,0.349488 c -0.493624,1.387239 -2.048541,2.326383 -3.868043,2.626092 -1.819502,0.298726 -3.873966,-0.04781 -5.29956,-1.152944 -0.91814,-0.711674 -1.803708,-1.980784 -2.445416,-3.383647 -0.641717,-1.401881 -1.04254,-2.93945 -1.032668,-4.17244 0.003,-0.401242 0.19745,-0.862997 0.400822,-1.303285 0.202391,-0.440287 0.424525,-0.850309 0.387995,-1.253495 -0.03558,-0.385607 -0.301115,-0.592572 -0.476838,-0.718509 -0.08789,-0.06344 -0.154015,-0.115193 -0.184622,-0.157175 -0.03157,-0.04099 -0.0444,-0.06635 -0.03157,-0.152295 l 0.06023,-0.398306 -0.353439,0.20013 c -0.648623,0.367067 -0.963549,1.03286 -1.180752,1.753324 -0.179671,-0.17279 -0.380087,-0.346562 -0.629861,-0.479334 -0.365286,-0.193294 -0.821389,-0.28701 -1.314032,-0.117147 l -0.131306,0.0449 -0.002,0.13667 c -0.007,0.610151 0.243851,1.020172 0.547923,1.316954 0.294201,0.288966 0.623949,0.493976 0.859903,0.74584 0.652571,1.639112 0.745373,3.49006 1.57071,5.339054 0.755245,1.694755 1.904407,3.234289 2.157138,4.641051 0.07506,0.412947 -0.005,0.765372 -0.151049,1.137319 -0.137229,0.347534 -0.332705,0.714601 -0.496582,1.12365 -2.468124,1.249586 -6.164393,2.088179 -8.174431,3.905935 -0.21127,0.190368 -0.50054,0.484214 -0.691075,0.8464 -0.191527,0.362186 -0.281372,0.81906 -0.03949,1.24666 l 0.09872,0.175716 0.173759,-0.102505 c 0.390951,-0.228442 0.650597,-0.562316 0.89544,-0.887401 0.245825,-0.324112 0.478812,-0.641389 0.800653,-0.881547 0.410705,-0.30458 1.284417,-0.758537 2.026824,-1.047502 1.385116,-0.538885 3.183883,-1.37845 4.76645,-1.175394 -0.01082,0.05953 -0.03257,0.123011 -0.07306,0.195249 -0.07206,0.130818 -0.193502,0.276278 -0.338628,0.426618 -0.291234,0.298727 -0.67034,0.606242 -0.929985,0.934263 -1.858998,2.346878 -2.1216,5.904297 -3.475128,8.523544 -1.51542,2.932625 -5.176151,5.080356 -9.780678,4.774794 -2.226248,-0.147414 -4.200748,-1.266183 -6.611618,-1.464368 -1.442371,-0.11812 -2.848213,0.20013 -4.14645,0.09761 -2.458253,-0.193295 -4.339951,-1.043593 -6.138718,-1.831425 -3.129976,-1.939783 -5.338555,-4.799188 -7.119854,-8.106687 -0.929885,-3.020489 -2.722639,-5.95116 -2.945555,-9.498817 -0.140586,-2.237538 -0.200617,-4.4907 -0.264195,-6.801459 0.04079,0.174744 0.08909,0.356333 0.185314,0.553527 0.28956,0.592582 0.759093,1.036768 1.214805,1.445817 0.455722,0.409039 0.898206,0.784895 1.164466,1.207604 0.452455,0.720464 0.723455,1.712324 1.190131,2.52944 0.233288,0.408067 0.520674,0.775133 0.91814,1.029933 0.397566,0.253818 0.901162,0.385608 1.528949,0.339727 l 0.03317,-0.384635 c -0.96878,-0.238204 -1.469621,-0.758537 -1.872518,-1.444836 -0.402988,-0.686298 -0.683959,-1.538551 -1.162582,-2.366401 -0.314835,-0.545719 -0.807077,-0.95086 -1.265846,-1.339404 -0.458779,-0.387571 -0.882011,-0.758537 -1.097731,-1.189063 -0.767291,-1.531717 -0.442584,-3.547647 0.01543,-5.531367 0.738067,-3.197187 3.064623,-6.481255 5.955779,-8.874024 2.834994,-2.345896 5.613114,-4.955391 9.193871,-5.717837 0.234962,-0.04981 0.593332,-0.0898 0.849029,-0.0927 0.392926,-0.005 0.939867,0.164001 1.464099,0.328993 0.524231,0.164983 1.016864,0.338755 1.436448,0.251864 0.230031,-0.0468 0.417609,-0.198176 0.602221,-0.38659 0.18363,-0.187442 0.363311,-0.41881 0.541008,-0.65994 0.356406,-0.48226 0.7207,-1.00552 1.012926,-1.236889 0.581486,-0.45981 1.383132,-0.907905 2.187744,-1.118779 0.80362,-0.210863 1.594412,-0.187432 2.214402,0.246993 l 0.185605,0.130818 0.103655,-0.201102 c 1.067224,-2.053033 2.170968,-4.174405 3.749575,-5.75103 1.578618,-1.576626 3.61828,-2.619257 6.632353,-2.537247 l 0.08288,0.002 0.06023,-0.05763 c 0.722664,-0.69606 1.125461,-1.6518 1.612181,-2.481604 l 0.002,-0.004 0.002,-0.004 c 1.907363,-3.586713 6.762656,-7.096287 11.721615,-8.393708 1.005019,-0.263589 2.381246,-0.4686 3.671586,-0.445169 1.290329,0.02345 2.488859,0.286039 3.152284,0.888373 0.159938,0.144488 0.269527,0.369021 0.403789,0.624803 0.123409,0.234295 0.28433,0.489095 0.541009,0.69605 1.051429,2.936534 -0.503497,6.421704 -1.19852,8.828143 l -0.132289,0.458829 0.419584,-0.235278 c 0.727605,-0.407084 0.820397,-1.27887 0.979353,-1.76992 0.588401,-1.817755 1.080052,-3.366078 1.193579,-5.417156 0.03458,-0.623811 -0.221142,-1.310109 -0.101681,-1.926113 0.21127,-1.097302 1.063265,-2.11552 2.115677,-3.053682 1.052402,-0.937189 2.294366,-1.790425 3.247061,-2.593871 0.627887,-0.52814 1.249862,-1.4214037 1.875775,-1.9522805 1.713862,-1.4528431 4.021065,-2.416481 6.090335,-3.590802 l 0.0938,-0.053217 0.005,-0.1065041 c 0.006,-0.1133491 0.0434,-0.1858785 0.0977,-0.3048801 0.0533,-0.1190115 0.1155,-0.2846756 0.0997,-0.500029 l -0.0326,-0.4313079 -0.25767,0.2612442 c -0.0148,-0.011826 -0.0118,-0.00902 -0.0336,-0.030667 -0.0967,-0.098316 -0.24977,-0.2754955 -0.50054,-0.3600313 l -0.0582,-0.019443 -0.0582,0.016236 c -3.588651,0.9902965 -6.591861,2.5908443 -8.572284,5.2184895 -1.871826,1.3719052 -3.261873,2.6722632 -6.097258,2.8762912 -0.666391,0.04881 -1.386098,-0.03708 -2.069276,0 -4.937241,0.270424 -8.526878,2.098923 -11.743343,4.130468 -1.594402,1.006512 -3.199677,2.147731 -4.389308,3.55352 -1.223204,1.445808 -1.977466,3.095654 -3.209549,4.52682 -2.889683,0.178652 -4.948105,1.213467 -6.532636,2.693439 -1.574669,1.472176 -2.687292,3.373886 -3.748593,5.305872 -2.968655,-0.04099 -5.14752,1.491689 -6.564225,3.286994 -3.300377,-1.026025 -6.558301,0.677509 -8.92276,2.206299 -3.783339,2.446457 -6.831477,6.013638 -9.018239,9.947885 0.125483,-1.232018 0.526106,-2.410338 1.016373,-3.558391 v -9.82e-4 c 0.570834,-1.33745 1.109076,-2.762753 1.769153,-3.985981 1.293397,-2.396668 3.271945,-4.375507 4.920656,-6.614027 3.259898,-4.424314 6.170306,-9.272319 11.087805,-11.851548 1.412756,-0.740968 2.884742,-1.280825 4.84937,-1.343302 l 0.08388,-0.003 0.05532,-0.06053 c 2.451338,-2.653422 5.250193,-5.084254 8.549588,-7.190975 3.206583,-2.047179 6.678744,-3.7019054 10.436217,-5.3544775 8.088544,-3.5569376 16.86223,-6.0602997 27.174049,-6.5234276 1.74447,-0.078372 3.67652,-0.093606 5.42001,-0.097414 z m -8.769741,2.222605 C 94.761663,3.5575539 91.1967,5.4528996 88.649593,7.6593992 87.723556,7.6093893 86.617828,7.5006603 85.641442,7.5665952 78.092924,8.0755138 72.969096,11.280408 68.458353,14.633788 c -0.684159,0.507646 -1.26763,1.190035 -1.947841,1.544414 -0.42254,0.220625 -0.93197,0.281158 -1.448294,0.37292 -0.516335,0.0918 -1.05143,0.222589 -1.463106,0.639435 l -0.324808,0.328993 0.464993,0.003 c 1.166931,0.007 2.154181,-0.463719 2.953852,-0.616986 -0.228056,0.349488 -0.486709,0.739014 -0.701928,1.175393 -0.291244,0.587692 -0.485728,1.236889 -0.265578,1.849976 l 0.242868,0.675555 0.137229,-0.703867 c 0.653554,-3.354362 3.184866,-4.920254 5.835628,-6.608164 4.501864,-2.867221 10.818289,-5.9231379 17.630313,-4.8520138 l 0.228056,0.035879 9.93e-4,-0.2282416 c 0,-0.1990575 -0.07106,-0.3210857 -0.115512,-0.3872812 0.01082,-0.013229 0.009,-0.014632 0.05532,-0.058629 l 9.82e-4,-0.001 9.92e-4,-0.001 C 92.071434,5.4877061 95.70649,4.4147179 99.989176,3.9540353 l -0.01082,-0.3889348 c -0.298149,-0.016436 -0.59235,-0.023852 -0.883584,-0.02275 z m 27.888821,0.3778004 c -0.0671,0.002 -0.13031,0.012528 -0.18856,0.028062 -0.23398,0.062036 -0.4265,0.2048202 -0.46697,0.2262974 -2.07421,1.1143692 -5.15937,2.4124823 -7.39055,3.4100047 l -0.0346,0.015835 -0.0267,0.027661 c -2.11371,2.1985922 -4.25308,4.2760286 -8.07374,4.7241236 l -0.14907,0.01664 -0.0228,0.147414 c -0.81646,5.310742 -3.63703,8.556737 -8.25834,10.093344 l -0.12834,0.04299 -0.006,0.133744 c -0.13723,3.05758 -1.30416,5.266806 -3.080224,6.937157 -1.77704,1.669369 -4.172116,2.793019 -6.753767,3.622823 l -0.180674,0.05853 0.05231,0.180597 c 0.524232,1.825573 0.03658,3.355335 -0.907276,4.627381 -0.943815,1.273017 -2.352623,2.27073 -3.636048,2.956047 l -0.17474,0.0937 0.09481,0.171818 c 1.471986,2.668064 2.08013,7.001589 1.069189,10.492621 -0.151049,0.522288 -0.462027,1.033833 -0.698973,1.573699 -0.236936,0.539857 -0.397856,1.127558 -0.186586,1.762113 l 0.05532,0.166937 0.173758,-0.03708 c 0.824355,-0.176698 1.319954,-0.813207 1.629949,-1.539523 0.309013,-0.725354 0.455121,-1.560039 0.594325,-2.222906 0.664416,-3.150324 0.655537,-6.491016 -0.745374,-9.547614 2.331889,-1.893913 4.553196,-3.796595 4.691417,-7.737676 4.705226,-1.907573 8.440984,-4.862648 9.558544,-10.354979 2.6103,-1.568808 4.96588,-3.270398 6.41713,-5.984343 0.83817,-1.566864 1.28244,-2.980461 2.03768,-4.604921 1.71881,-0.216726 2.70113,-0.806372 4.00824,-1.565892 1.71979,-0.998695 2.62608,-2.5154784 4.04476,-3.3172606 1.2311,-0.6953784 2.53428,-1.0871394 3.78907,-1.561983 1.25381,-0.4747435 2.46121,-1.0362776 3.46228,-2.0851529 l 0.14612,-0.1532669 -0.16586,-0.1325713 c -0.0158,-0.013329 -0.0128,-0.011024 -0.0267,-0.02285 0.0366,-0.042193 0.0691,-0.092904 0.0899,-0.1532668 l 0.0326,-0.094608 -0.0582,-0.081178 c -0.10564,-0.1470231 -0.24089,-0.243866 -0.38108,-0.2856478 -0.07,-0.020846 -0.1402,-0.028362 -0.20634,-0.026659 z m 0.37516,0.5161444 c 0.003,0.002 0.006,0.00401 0.009,0.00902 -9.9e-4,-9.822e-4 -0.006,-0.00501 -0.01,-0.00802 0,0 0,-9.722e-4 9.9e-4,-10e-4 z m 21.66622,6.2541753 c -1.53023,0.05171 -2.84329,0.639436 -4.06756,1.294496 -1.22414,0.656031 -2.37923,1.378449 -3.58367,1.739663 -0.71082,0.210864 -1.61909,0.127881 -2.42863,0.712656 l -0.55287,0.394397 0.68121,-0.04199 c 2.70506,-0.168881 4.31428,-1.174411 6.09131,-2.070601 1.2834,-0.644316 2.48792,-1.132439 3.92926,-1.649846 z m -66.317567,9.368972 c -0.01584,0 -0.03257,0.002 -0.04841,0.005 l -0.104648,0.01754 -0.04249,0.09661 c -0.825337,1.883169 -1.730649,3.98111 -2.569806,6.158125 -0.933944,2.420089 -2.189729,5.056914 -2.283513,7.773795 -0.100699,2.910167 0.541008,6.074161 0.403789,9.264513 -0.870756,-0.437362 -2.053481,-0.775134 -3.309266,-0.90986 -1.332792,-0.142533 -2.718891,-0.05171 -3.835462,0.403186 -2.294377,-3.126893 -5.568096,-5.850599 -10.834083,-5.724662 l -0.04149,0.384635 c 4.304413,1.006502 7.757813,2.788138 9.467727,6.290887 -2.384202,1.650818 -4.129663,3.778043 -4.876028,6.846367 -0.460052,1.892931 -0.91814,3.861026 -1.840228,5.57823 -1.269604,0.988934 -2.610294,1.649846 -4.17903,1.593222 -2.830454,-0.101523 -5.571052,-2.518696 -7.49422,-3.868833 l -0.490658,-0.343635 0.18856,0.56426 c 0.446242,1.335505 1.352536,2.594853 2.63102,3.605254 1.116581,0.882519 2.832418,1.496579 3.977631,2.335172 0.572607,0.4188 0.993173,0.88252 1.153112,1.440927 0.159928,0.554499 0.07406,1.227127 -0.434396,2.110629 -0.67034,0.830776 -1.757297,1.253495 -2.917323,1.694755 -1.164957,0.442232 -2.400007,0.905951 -3.284583,1.897811 -1.950798,2.18872 -2.600413,5.552844 -0.90925,8.332203 0.770057,1.2652 2.561909,2.396667 4.450522,2.043271 l 0.641707,-0.120084 -0.601229,-0.251864 c -1.474952,-0.616986 -2.489842,-1.082649 -3.163148,-2.259025 -1.241965,-2.172134 -0.810535,-4.161707 0.377131,-5.738332 1.166921,-1.552222 3.087123,-2.670018 4.832584,-3.03025 0.954668,0.843474 2.720865,1.274972 4.331071,1.180274 0.828294,-0.04881 1.616119,-0.240158 2.225256,-0.61894 0.609136,-0.378773 1.036617,-0.963548 1.091898,-1.736727 l 0.02465,-0.34559 -0.311969,0.158158 c -0.677255,0.344607 -1.078078,0.927428 -1.913296,1.054337 -1.249852,0.189386 -2.586593,-0.31826 -3.378367,-0.8874 0.799671,-0.621867 1.161008,-1.649847 1.575651,-2.528468 0.227064,-0.48226 0.469933,-0.919611 0.784869,-1.231035 0.314926,-0.312397 0.693049,-0.5096 1.251826,-0.529123 0.773023,-0.02636 1.34069,0.256754 1.939945,0.608196 0.599265,0.352425 1.221229,0.776116 2.059404,0.949888 l 0.205347,0.043 0.03057,-0.205011 c 0.06715,-0.439315 -0.09581,-0.7644 -0.292226,-0.995768 -0.196458,-0.232341 -0.410695,-0.399278 -0.520283,-0.592583 -0.860875,-1.516092 -1.166922,-3.838566 -1.022788,-6.096609 0.145126,-2.257071 0.743399,-4.452627 1.606258,-5.704167 0.893456,-1.29645 2.659652,-2.567513 4.578861,-3.190352 1.91922,-0.622839 3.970727,-0.603316 5.499977,0.597453 1.168906,0.917667 1.463106,2.542137 1.471004,4.470205 0.008,1.928077 -0.269527,4.126569 -0.163887,6.124931 l 0.005,0.09371 0.07897,0.05462 c 0.301115,0.210864 0.669357,0.410022 1.193589,0.426618 l 0.180663,0.006 0.02175,-0.178652 c 0.0474,-0.410021 0.265578,-0.966474 0.475856,-1.512194 0.21127,-0.546691 0.420576,-1.079723 0.413661,-1.539534 -0.04049,-2.621201 -0.531137,-6.375813 -0.889517,-9.681358 -0.175723,-1.614709 0.05432,-3.034158 9.92e-4,-4.573682 -0.03057,-0.866905 -0.255697,-2.1204 -0.40872,-3.448079 -0.153023,-1.327688 -0.232005,-2.723716 0.009,-3.824906 0.871749,-3.979156 2.366444,-8.472782 3.452419,-12.188358 l 0.06915,-0.238204 -0.247799,-0.01072 c 0.002,0.002 -0.003,0 -0.003,0 h 0.003 c -9.93e-4,-0.002 -0.007,-0.008 -0.03157,-0.02536 -0.0454,-0.03127 -0.150057,-0.07807 -0.26162,-0.07416 z m -27.684467,1.947601 -0.364294,0.116175 c 0.0908,1.481927 -0.232005,2.906258 -1.278484,3.619896 -3.09997,0.813207 -5.201827,2.644633 -6.648147,5.086209 -1.81851,0.448095 -3.235215,1.279843 -4.359694,2.471833 -1.013908,1.075814 -1.421646,2.624137 -2.189718,3.73119 -0.538052,0.776106 -1.138209,1.093383 -1.581775,1.761131 l -0.281463,0.423691 0.496091,-0.127891 c 1.078869,-0.277249 1.707748,-1.01919 2.17669,-1.854847 0.467959,-0.835666 0.798679,-1.773828 1.29527,-2.521632 1.050438,-1.584432 2.825513,-2.840854 4.790141,-3.037075 l 0.1007,-0.01002 0.05031,-0.08589 c 0.814474,-1.386257 1.879724,-2.78911 3.304326,-3.799521 1.425584,-1.011382 3.206583,-1.637148 5.493052,-1.473147 0.3722,0.02736 0.794741,0.164992 1.197538,0.245038 0.201398,0.03999 0.39984,0.06544 0.594324,0.0449 0.194493,-0.02145 0.389969,-0.09762 0.538052,-0.251874 l 0.18363,-0.192312 -0.239903,-0.117148 c -0.542,-0.265543 -1.310083,-0.355361 -2.09396,-0.392452 -0.631836,-0.03027 -1.208391,-0.01754 -1.725708,-0.01463 0.279389,-0.379755 0.543975,-0.88252 0.707852,-1.430194 0.21621,-0.72339 0.254714,-1.533671 -0.164869,-2.191657 z m 80.693864,4.885106 c -0.0197,0 -0.0296,0.002 -0.0494,0.005 l -0.0395,0.007 -0.0395,0.02345 c -0.11848,0.08008 -0.17771,0.198176 -0.2172,0.300681 -0.0296,0.102506 -0.0494,0.20013 -0.079,0.276278 -0.0197,0.07717 -0.0395,0.126908 -0.0592,0.145459 -0.0197,0.01173 -0.0494,0.01273 -0.0692,0.01664 -0.0987,-0.05853 -0.1777,-0.164011 -0.2863,-0.307516 -0.12834,-0.161074 -0.33566,-0.35047 -0.64171,-0.367067 l -0.21719,-0.01173 0.01,0.2138 c 0.01,0.49105 0.24681,0.906924 0.48376,1.313046 0.2468,0.406113 0.49362,0.807345 0.60222,1.263247 0.40477,1.658635 1.01686,3.718502 1.35252,5.749075 0.31593,1.966152 0.35542,3.895201 -0.29617,5.393725 -0.0494,-0.01563 -0.079,-0.02736 -0.14808,-0.04199 -0.12834,-0.02736 -0.32579,0.002 -0.46402,0.139596 l -0.10859,0.110313 0.0889,0.129845 c 0.30605,0.476407 0.81942,0.718509 1.39202,0.864951 l 0.2172,0.05272 0.0297,-0.209891 c 0.0297,-0.135698 0.01,-0.258709 -0.0297,-0.35926 -0.0494,-0.100551 -0.11847,-0.169863 -0.1777,-0.219653 -0.0987,-0.08098 -0.12835,-0.111294 -0.15796,-0.154249 1.15508,-2.227776 0.66146,-4.701563 0.0592,-7.108002 -0.62197,-2.446447 -1.33279,-4.837262 -0.6812,-6.871743 l 0.0692,-0.243084 -0.24681,-0.01072 c 0,0.002 -0.01,0 -0.01,0 h 0.01 c 0,-0.002 -0.01,-0.007 -0.0395,-0.02445 -0.0395,-0.03217 -0.14808,-0.07907 -0.25668,-0.07516 z m 6.98973,2.442549 -0.18758,0.005 -0.01,0.185488 c 0,0.243084 0.0889,0.444186 0.22706,0.572077 0.13821,0.127881 0.30605,0.190358 0.46401,0.242102 0.15796,0.05081 0.30605,0.0927 0.41465,0.144488 0.0987,0.05171 0.15796,0.102505 0.18758,0.184505 2.76429,10.128481 -3.08022,17.891543 -10.91899,20.148604 l -0.25669,0.07326 0.14809,0.219653 c 0.20732,0.325094 0.14808,0.635536 0.0592,0.963547 -0.0494,0.164011 -0.10861,0.325095 -0.13822,0.489095 -0.0296,0.164011 -0.0296,0.352425 0.079,0.5096 l 0.0987,0.132772 0.14808,-0.07416 c 0.37516,-0.181579 0.55286,-0.541811 0.6121,-0.90986 0.0395,-0.302635 0,-0.613077 -0.0692,-0.898134 2.02387,-0.701922 3.89964,-1.63813 5.8149,-3.091755 0.82929,-0.636509 1.51049,-1.464358 2.44839,-2.03839 0.87865,-0.541811 2.19169,-1.24666 3.14929,-1.239825 0.61214,0.004 1.06633,0.2548 1.49075,0.610151 0.4147,0.344618 0.78982,0.784895 1.20452,1.159769 0.52324,1.099246 0.39486,2.098923 0.14803,3.17571 -0.25666,1.064099 -0.62196,2.190685 -0.56273,3.478345 -0.0591,0.07617 -0.26648,0.197203 -0.48375,0.334846 -0.11846,0.07226 -0.23692,0.155221 -0.31589,0.296782 -0.0792,0.141551 -0.0692,0.337772 0.0301,0.507646 l 0.0892,0.155221 0.15794,-0.07226 c 0.47393,-0.205983 0.83923,-0.485186 1.20443,-0.684344 0.36529,-0.199148 0.73059,-0.328993 1.26375,-0.275295 l 0.25666,0.02536 -0.0391,-0.252846 c -0.0301,-0.192323 -0.17769,-0.340709 -0.33563,-0.40514 -0.14812,-0.06544 -0.32581,-0.07416 -0.49367,-0.06835 -0.2271,0.008 -0.44427,0.0449 -0.62196,0.07717 0.18761,-3.200113 1.84612,-5.631918 3.66268,-7.531684 1.38221,-1.052383 2.65568,-2.192639 4.03789,-3.308471 1.67835,-1.354046 3.13944,-3.091755 4.99548,-3.977201 l 0.18761,-0.0927 -0.10864,-0.181579 c -0.38504,-0.651151 -0.90828,-1.108036 -1.28339,-1.668397 l -0.29625,-0.447123 -0.0692,0.531077 c -0.16787,1.410671 -0.44427,2.151639 -1.23409,3.01658 -0.88853,0.984053 -2.45825,1.97005 -3.92925,3.20304 -0.84905,0.717537 -1.57964,1.488772 -2.36936,2.061822 -0.78982,0.573049 -1.62895,0.951832 -2.72484,0.917667 -1.92519,-0.06053 -2.92226,-0.932309 -3.45542,-2.273668 -0.54298,-1.340376 -0.56273,-3.165938 -0.40478,-5.031538 0.25676,-2.917001 0.23701,-5.815452 -0.4936,-8.27167 l -0.0494,-0.148396 -0.15795,0.01002 c -0.31593,0.01854 -0.47388,-0.07807 -0.6812,-0.206965 -0.2172,-0.128863 -0.48376,-0.292874 -0.88853,-0.281158 z m 22.11444,11.220892 c -0.0692,-9.72e-4 -0.1383,0 -0.20735,0.004 l -0.17769,0.01173 -0.01,0.171818 v 0.004 -0.004 c 0,0.002 -0.01,0.008 -0.02,0.03217 -0.0391,0.0439 -0.0792,0.146442 -0.0792,0.2548 0,-0.009 0,-0.01854 0.01,-0.02736 l -0.01,0.07807 v -0.05081 c -0.4146,1.667425 -1.53023,2.429861 -2.69517,3.48518 -2.5274,2.278538 -4.6401,5.48256 -5.39044,9.479285 -0.30596,1.588341 -0.42452,3.369976 -1.14519,4.200762 -0.66144,0.721436 -1.59928,1.071906 -2.70499,1.302303 -1.10581,0.230386 -2.37928,0.334845 -3.70226,0.587691 -1.35255,0.260663 -2.46808,0.828832 -3.54422,1.358927 -1.08597,0.531077 -2.12257,1.025053 -3.34676,1.177348 -1.41177,0.174744 -2.45825,0.05562 -3.60347,-0.225516 0.49363,-0.795629 0.57261,-1.805067 0.6121,-2.83012 0.0395,-1.133411 0.0197,-2.296107 0.33567,-3.227444 0.14808,-0.410993 0.38502,-0.697032 0.63183,-0.997713 0.24682,-0.301663 0.49363,-0.625775 0.56274,-1.085586 l 0.0296,-0.205982 -0.20732,-0.01854 c -0.21719,-0.01854 -0.40477,0.06154 -0.56273,0.180607 -0.14809,0.119102 -0.27644,0.274323 -0.38503,0.439305 -0.11847,0.177681 -0.22707,0.363159 -0.33566,0.533032 -0.0296,-0.195249 -0.0592,-0.381709 -0.0987,-0.57794 -0.0691,-0.354369 -0.18758,-0.704839 -0.48375,-0.926446 l -0.24682,-0.184516 -0.069,0.298737 c -0.0889,0.420754 0,0.850298 0.11847,1.272035 0.10859,0.41393 0.23693,0.821997 0.26656,1.197843 -0.42453,1.242761 -0.49363,2.543109 -0.62198,3.717521 -0.13821,1.191989 -0.33566,2.242428 -1.00699,2.999011 -1.05636,1.201751 -2.83341,1.361853 -4.82765,1.792379 -2.40889,0.522288 -4.49099,1.7377 -7.07068,1.849966 -2.19169,0.09571 -3.72489,-0.190358 -5.26204,-0.674572 -0.42649,-0.133744 -0.85496,-0.378783 -1.29329,-0.572078 -0.43835,-0.193294 -0.90235,-0.338754 -1.38413,-0.210873 l -0.15994,0.04199 0.0138,0.162056 c 0.0385,0.475425 0.28138,0.80052 0.5736,1.017236 0.0721,0.05472 0.15105,0.0918 0.22805,0.137653 -1.1452,0.06544 -1.97548,0.430526 -2.89757,0.661894 0.27347,-0.305561 0.63381,-0.588673 0.97836,-0.897171 0.49066,-0.439306 0.94776,-0.965492 0.91913,-1.723057 l -0.007,-0.177681 -0.17869,-0.01072 c -0.51634,-0.02826 -0.86681,0.250892 -1.0919,0.564271 -0.22608,0.313368 -0.37614,0.665793 -0.55089,0.871776 -1.31995,1.549295 -3.08812,2.751046 -4.79605,3.991843 -0.9764,-0.610151 -2.25588,-0.814179 -3.59163,-0.906923 -1.34759,-0.0927 -2.75048,-0.07617 -3.95394,-0.2138 -0.0948,-0.222579 -0.13426,-0.460783 -0.16092,-0.711674 -0.0287,-0.285067 -0.0494,-0.584775 -0.20435,-0.86007 l -0.0543,-0.09661 -0.11254,-0.003 c -0.71971,-0.02145 -1.15904,0.249919 -1.45028,0.607224 -0.29223,0.356323 -0.467952,0.77318 -0.776965,1.117797 -4.411026,4.940749 -11.346458,8.371249 -19.041085,9.894186 -0.390951,0.07807 -0.883594,0.0898 -1.341681,0.16401 -0.458078,0.07316 -0.910243,0.214772 -1.156068,0.608197 l -0.146108,0.234295 0.271491,0.05853 c 0.589394,0.128863 1.245913,-0.003 1.867878,-0.141551 0.49165,-0.109341 0.961584,-0.219653 1.334766,-0.243085 -0.141177,0.266516 -0.365285,0.520334 -0.589393,0.780997 -0.293209,0.340709 -0.596299,0.702885 -0.596299,1.170513 v 0.274322 l 0.262612,-0.0898 c 0.625913,-0.215754 0.978361,-0.702895 1.26269,-1.187109 0.274458,-0.46859 0.504489,-0.940116 0.843116,-1.256421 2.754418,-0.384636 5.204774,-1.381377 7.276025,-2.145777 2.411852,-0.890326 4.442624,-1.806039 6.444774,-2.942387 0.780911,-0.442231 1.779024,-0.953786 2.589549,-1.576625 0.901363,-0.692151 1.745458,-1.541478 2.400008,-1.723057 0.62394,-0.1728 2.26377,-0.24113 3.82954,-0.173772 0.78289,0.03317 1.55492,0.09862 2.18676,0.192313 0.63283,0.09471 1.13632,0.231379 1.32884,0.349498 0.38799,0.239176 0.50745,0.574032 0.64073,0.971355 0.13327,0.398305 0.27445,0.861043 0.73353,1.171495 l 0.10563,0.07126 0.10859,-0.06544 c 0.25175,-0.150341 0.33468,-0.423692 0.3801,-0.677509 0.0424,-0.237222 0.0582,-0.474453 0.0977,-0.666776 1.68524,-1.796278 3.89965,-3.456858 7.03614,-3.70385 2.3921,-0.188415 5.02115,0.369021 7.59886,0.195249 2.3536,-0.158148 4.2353,-1.133411 5.95311,-1.566864 1.00699,-0.252846 2.04361,-0.326067 3.06047,-0.585747 1.58947,-0.403187 2.85315,-1.306201 3.86015,-2.036436 1.06623,0.158157 2.5471,0.343635 4.01811,0.18647 2.25093,-0.242113 3.74175,-1.598113 5.86427,-2.352741 1.51049,-0.534976 3.31722,-0.604299 4.89676,-0.894236 0.79964,-0.14546 1.53023,-0.346562 2.14237,-0.706793 0.42452,-0.244067 0.77007,-0.572078 1.04648,-0.989916 0.0792,0.463719 0.24683,0.893263 0.51331,1.221284 0.39496,0.492994 1.01692,0.751702 1.67836,0.488113 l 0.10863,-0.0468 0.01,-0.12301 c 0.0391,-0.690197 -0.18751,-1.159769 -0.40478,-1.588341 -0.227,-0.429544 -0.44427,-0.822969 -0.48376,-1.46046 -0.0391,-0.631618 0.0301,-1.350137 0.0982,-2.017885 0.63187,-5.982388 4.38344,-11.126204 9.81327,-12.22545 l 0.1383,-0.02826 0.02,-0.137653 c 0.0792,-0.616986 -0.15804,-0.98307 -0.31599,-1.288642 l -0.0591,-0.09661 -0.10853,-0.007 c -0.44427,-0.02636 -0.85897,0.105432 -1.21435,0.23625 -0.14812,0.05562 -0.2764,0.106414 -0.40478,0.15034 0.0792,-0.128863 0.15795,-0.258698 0.23692,-0.403186 0.15794,-0.277249 0.28632,-0.611123 0.28632,-1.058246 v -0.163028 l -0.15794,-0.02836 c -0.34556,-0.05953 -0.67137,-0.193294 -1.12545,-0.202084 z m -20.64344,0.979172 c 0,0.144487 0,0.287011 0.0198,0.419782 0.12834,0.925475 0.64167,1.71525 0.81946,2.405457 -1.01691,-0.02055 -1.89557,0.380727 -2.72485,0.735106 0.77004,-1.039695 1.46112,-2.169208 1.88564,-3.560345 z m -83.296247,3.746805 c -0.407738,9.82e-4 -0.812509,0.07326 -1.144222,0.165965 -1.435466,0.403186 -3.381333,1.481927 -4.492984,2.169197 -0.335661,0.208919 -0.566674,0.445169 -0.773013,0.622849 -0.206329,0.177671 -0.377131,0.292864 -0.627887,0.325085 -0.815476,0.105431 -1.572695,-0.343636 -2.388161,-0.871786 -0.814484,-0.527169 -1.67635,-1.127549 -2.710001,-1.179292 -0.787826,-0.03909 -1.489765,0.102505 -2.132464,0.216726 -0.641708,0.114221 -1.222212,0.198176 -1.784947,0.08008 -0.206329,-0.04299 -0.365276,-0.152295 -0.577538,-0.270414 -0.212262,-0.11813 -0.481779,-0.233323 -0.851995,-0.221607 l -0.217193,0.008 0.02866,0.2138 c 0.159939,1.17832 -0.193501,1.943692 -0.797697,2.537247 -0.605178,0.592572 -1.479882,0.998695 -2.340767,1.356 l -0.05131,0.02145 -0.03157,0.0439 c -0.09671,0.132772 -0.123408,0.295801 -0.0928,0.429545 0.03057,0.132771 0.09972,0.238203 0.168818,0.332901 0.135254,0.187432 0.262612,0.351443 0.279398,0.445159 -0.02666,1.396028 -0.687126,2.454274 -1.417797,3.508611 -0.734209,1.06019 -1.540695,2.111601 -1.737454,3.472482 -0.327272,2.26585 0.84459,4.216377 2.046958,5.15943 1.07472,0.842491 2.574356,1.249586 3.550752,2.047169 0.152031,0.124955 0.258653,0.291892 0.404772,0.470544 0.145126,0.177681 0.34455,0.362186 0.656519,0.446141 l 0.240885,0.06444 0.008,-0.246993 c 0.01974,-0.58672 -0.296175,-1.01919 -0.683177,-1.324762 -0.387003,-0.304579 -0.850021,-0.512526 -1.19358,-0.705821 -1.078077,-0.608197 -2.277589,-1.229082 -3.129194,-2.10184 -0.851995,-0.87373 -1.371487,-1.979811 -1.116281,-3.654061 0.201299,-1.319881 1.100196,-2.346888 1.89187,-3.55352 0.766108,-1.168558 1.404859,-2.527475 1.09288,-4.435048 0.916175,-0.209891 1.603301,-0.667747 2.112721,-1.27888 0.509419,-0.611124 0.851013,-1.36478 1.144221,-2.152602 1.05142,0.27725 2.064336,0.163029 2.992357,0.04781 0.981327,-0.122039 1.863929,-0.224534 2.634968,0.102505 1.136324,0.48226 2.1216,1.600057 3.373436,2.018857 0.25273,0.558407 0.106622,1.562965 0.06023,2.484531 -0.02465,0.474452 -0.01774,0.9284 0.139203,1.310119 0.157954,0.381709 0.498556,0.673601 1.019831,0.740959 l 0.409702,0.05272 -0.215218,-0.348516 c -0.916166,-1.483881 -0.654546,-2.863303 0.113537,-4.053348 0.766108,-1.187099 2.054464,-2.155528 3.152284,-2.692468 0.629872,-0.137642 1.182726,-0.480306 1.76323,-0.679463 0.283347,-0.09661 0.639743,-0.139597 0.992191,-0.223552 0.352447,-0.08298 0.713784,-0.213799 0.970463,-0.519361 l 0.205347,-0.244056 -0.312951,-0.07026 c -0.149075,-0.03417 -0.30309,-0.05372 -0.458088,-0.06153 -0.05823,-0.003 -0.116494,-0.005 -0.17474,-0.005 z m 89.160497,0.842502 c -0.17768,0.255772 -0.36529,0.533021 -0.5528,0.824913 -0.24684,0.370003 -0.51342,0.719491 -0.78,1.027007 -0.0391,-0.760492 -0.25666,-1.361853 -0.59229,-1.845095 0.62196,0.108368 1.32288,0.123982 1.92509,-0.007 z m -105.931909,8.588947 -0.009,0.185487 c -0.02175,0.40905 -0.154997,0.676537 -0.352447,0.903997 -0.196468,0.22747 -0.465985,0.411004 -0.74834,0.605271 l -0.207321,0.142533 0.190545,0.16401 c 1.358448,1.17832 2.372356,2.750065 3.755498,4.006486 -0.370226,0.990878 -0.38108,1.807022 -0.140196,2.488429 0.251749,0.711684 0.754263,1.270092 1.317981,1.774811 1.128427,1.010401 2.497739,1.832397 2.904495,3.159103 l 0.38601,-0.0459 c 0.05031,-0.880565 -0.290252,-1.553193 -0.779928,-2.094032 -0.488684,-0.539856 -1.12053,-0.96453 -1.688197,-1.40579 -0.566684,-0.442232 -1.065239,-0.897162 -1.320936,-1.471193 -0.23892,-0.53693 -0.268535,-1.198815 0.06514,-2.109647 0.50547,0.17279 1.149162,0.432471 1.830366,0.60527 0.757219,0.190359 1.553934,0.269443 2.191692,-0.102505 l 0.496592,-0.289947 -0.571625,-0.07226 C 49.48227,60.91137 47.849354,60.374439 46.698228,59.395267 45.546109,58.416105 44.853049,56.995673 44.790854,54.901641 l -0.005,-0.189396 z m -6.784284,9.708708 -0.492833,0.160102 c -0.780319,0.252846 -1.325376,0.835657 -1.647618,1.553194 -0.322342,0.717537 -0.432512,1.572726 -0.366177,2.421071 0.06634,0.847382 0.309704,1.688902 0.714375,2.378127 0.404681,0.688242 0.976787,1.230063 1.700543,1.438972 l 0.31681,0.0918 -0.06835,-0.319231 c -0.07877,-0.369022 -0.328264,-0.599418 -0.570141,-0.781969 -0.241877,-0.183534 -0.482962,-0.3368 -0.647931,-0.561344 -0.582478,-0.792702 -0.960001,-2.22485 -0.754453,-3.465647 0.08769,-0.529123 0.329538,-0.908877 0.627597,-1.279853 0.298049,-0.370965 0.654445,-0.726316 0.92771,-1.191007 z m 129.813533,1.47412 -0.63188,0.362186 c -2.50756,1.442881 -5.61743,2.291236 -9.57635,2.316612 l -0.0391,0.386589 c 2.56689,0.492032 4.98566,-0.134716 6.92067,-0.787821 1.08597,-0.369993 2.42859,-0.698986 2.97157,-1.650818 z m 6.18015,1.28766 -0.0692,0.122028 c -0.63177,1.074843 -2.05347,2.176043 -3.76139,2.985342 -1.6981,0.808326 -3.66267,1.330614 -5.35085,1.309137 -1.18468,-0.01463 -2.30031,-0.528151 -3.59363,-0.288965 l -0.64169,0.119102 0.60221,0.251863 c 2.49774,1.042632 5.2818,0.88252 7.7598,0.126919 2.41876,-0.736088 4.54139,-2.033509 5.87409,-3.378766 1.32298,0.889355 3.17902,0.781969 4.98565,0.671646 1.86587,-0.114221 3.68242,-0.21867 4.83754,0.607225 l 0.28632,0.205983 0.0301,-0.351443 c 0.01,-0.215744 -0.0691,-0.410993 -0.19743,-0.566214 -0.12838,-0.154249 -0.28633,-0.278232 -0.46401,-0.391481 -0.35538,-0.224533 -0.76016,-0.408067 -0.99717,-0.580856 l -0.0391,-0.02736 -0.0491,-0.007 c -1.50066,-0.215744 -2.76432,0.158158 -3.88977,0.193305 -1.93501,0.06053 -3.43568,-0.623821 -5.18308,-0.972337 z m -21.30489,1.377478 c -0.0491,0.002 -0.0992,0.007 -0.14802,0.01664 l -0.16787,0.02926 v 0.168891 c 0.01,0.08298 -0.01,0.102505 -0.0591,0.179625 l -0.01,0.01072 -0.01,0.01072 c -0.55291,1.138291 -1.471,1.891948 -2.60638,2.501127 -1.13527,0.609169 -2.48781,1.067025 -3.89959,1.599074 -5.58785,2.116492 -13.06133,4.51804 -19.46463,4.282763 -0.26951,-0.01002 -0.89247,-0.148386 -1.46408,-0.165954 -0.28631,-0.009 -0.56669,0.01002 -0.80955,0.111284 -0.24287,0.100561 -0.44624,0.312397 -0.4956,0.608197 l -0.0118,0.07126 0.0385,0.06154 c 0.13821,0.226487 0.37614,0.335828 0.61308,0.368049 0.23694,0.03217 0.48672,0.005 0.73747,-0.02736 0.37713,-0.04881 0.75327,-0.09962 1.03859,-0.05562 -0.15302,0.162056 -0.34159,0.348516 -0.50054,0.571095 -0.11254,0.15913 -0.20633,0.340709 -0.20238,0.550601 0.004,0.208919 0.11748,0.419782 0.33073,0.594526 l 0.12143,0.09962 0.1244,-0.09471 c 0.42747,-0.325084 0.69206,-0.712646 0.94677,-1.01919 0.25372,-0.306534 0.48079,-0.525214 0.85002,-0.604288 1.83825,-0.391481 3.82263,-0.312397 5.70827,-0.583793 3.35665,-0.480316 6.93049,-1.693773 10.01071,-2.741285 2.19173,-0.747794 4.77827,-1.667415 6.93045,-2.642678 0.94777,-0.434425 1.59939,-0.917667 2.2016,-0.958667 0.23691,-0.01664 0.60221,0.0888 0.97743,0.167909 0.36529,0.07907 0.7799,0.13668 1.1057,-0.111285 l 0.0491,-0.0439 0.0201,-0.06935 c 0.0491,-0.260653 -0.0692,-0.504709 -0.26648,-0.628692 -0.18761,-0.123982 -0.42453,-0.178652 -0.68129,-0.221607 -0.38494,-0.06544 -0.7799,-0.113249 -1.06622,-0.181579 0.32581,-0.372929 0.71085,-0.747803 0.82931,-1.416523 l 0.02,-0.114221 -0.0892,-0.07126 c -0.12838,-0.09761 -0.30607,-0.221607 -0.56273,-0.246993 -0.0491,-0.004 -0.0892,-0.006 -0.1383,-0.004 z M 40.297148,69.085465 c -0.09972,0.002 -0.198442,0.006 -0.296175,0.01363 -0.390951,0.03127 -0.757519,0.111285 -1.053303,0.267488 -0.295684,0.157175 -0.52778,0.410021 -0.570132,0.744867 l -0.03217,0.253818 0.256198,-0.03708 c 0.300905,-0.04199 0.565692,-0.19134 0.823754,-0.322158 0.257771,-0.130817 0.506563,-0.244066 0.742517,-0.261635 1.182725,-0.0898 1.81851,0.452976 2.393091,1.218348 0.574581,0.766344 1.035625,1.755278 1.802716,2.440604 0.56965,0.50959 1.29034,0.620885 1.997209,0.68239 0.706869,0.06053 1.411764,0.07717 2.006088,0.328993 0.138221,0.05763 0.377132,0.235267 0.590376,0.435397 0.213254,0.20013 0.412679,0.426618 0.508437,0.567197 0.06324,0.09371 0.15599,0.403186 0.273466,0.70094 0.117486,0.297755 0.27545,0.62772 0.616051,0.741941 l 0.271492,0.0908 -0.01082,-0.283102 c -0.05131,-1.395056 -1.142247,-2.803762 -2.522423,-3.111278 -0.69798,-0.156203 -1.288356,-0.154249 -1.799759,-0.211846 -0.511394,-0.05763 -0.935908,-0.16401 -1.374243,-0.52815 -0.552864,-0.458829 -0.865825,-0.998685 -1.218273,-1.577598 -0.352447,-0.579884 -0.745373,-1.195898 -1.452242,-1.745516 l -0.01383,-0.01072 -0.01483,-0.008 c -0.425506,-0.224534 -1.021805,-0.358278 -1.623034,-0.384636 -0.100699,-0.005 -0.200417,-0.006 -0.300124,-0.005 z m 128.559742,7.836273 c 0.95758,0.01002 1.89542,0.09661 2.83337,0.332902 0.78982,0.198175 1.67835,0.545709 2.40884,0.965492 0.74051,0.419782 1.31306,0.921575 1.51049,1.362835 0.0892,0.225516 0.16787,0.628702 0.17779,1.021144 0.02,0.393425 -0.0201,0.787832 -0.0892,0.985025 -0.2764,0.774162 -1.16493,1.304257 -2.37928,1.684994 -1.21434,0.379754 -2.73465,0.604288 -4.17609,0.821996 -2.65568,0.40025 -6.02222,0.683362 -8.47055,0.876657 -4.62036,0.36414 -8.99388,0.06635 -12.9527,0.783923 -3.87007,0.698986 -6.9799,2.03839 -9.73433,4.211496 -0.8984,0.20013 -1.59935,0.591601 -2.3003,0.947934 -0.49363,-0.147414 -1.00699,-0.191351 -1.39202,-0.298737 -0.20732,-0.05763 -0.36528,-0.131789 -0.47388,-0.23234 -0.0987,-0.100551 -0.16783,-0.226488 -0.1777,-0.447123 -0.0197,-0.178653 0.0889,-0.416846 0.31592,-0.678481 0.21719,-0.261635 0.54298,-0.537913 0.90826,-0.80052 0.72069,-0.525214 1.58948,-0.997713 2.1226,-1.263256 4.17606,-2.113556 9.59607,-3.278205 14.56189,-4.375507 3.4455,-0.762436 7.05887,-1.503404 10.74129,-1.949545 3.75157,-0.45493 7.73023,-0.878621 10.97821,-1.662534 l -0.0692,-0.383663 c -10.4254,1.227127 -22.56854,2.740303 -32.0264,6.061472 -1.56973,0.548646 -2.93213,1.014309 -4.57096,1.86559 -0.56274,0.29092 -1.42165,0.708748 -2.17195,1.194917 -0.37516,0.243084 -0.7207,0.502765 -0.98725,0.780996 -0.26656,0.27725 -0.46401,0.57793 -0.49363,0.910832 -0.0692,0.646271 0.22707,1.151962 0.71082,1.438001 0.32579,0.188414 0.72069,0.287983 1.16496,0.326056 -1.60923,0.826878 -3.7713,0.81907 -5.99261,0.406123 -0.69799,-0.129846 -1.31995,-0.165965 -1.86392,-0.29092 -1.07413,-0.247965 -2.54513,-0.976245 -3.72094,-1.454597 -0.63283,-0.257726 -1.41473,-0.50081 -2.05645,-0.783922 -0.64073,-0.284085 -1.10374,-0.616004 -1.18371,-0.93719 -0.0899,-0.364141 -0.0454,-0.665794 0.0898,-0.947934 0.13427,-0.283102 0.36726,-0.543765 0.65849,-0.785867 0.5815,-0.484214 1.38907,-0.88252 2.02682,-1.274972 1.39894,-0.858116 2.48986,-1.730874 3.72194,-2.229731 3.03875,-1.231035 6.27693,-2.031555 9.82116,-2.525531 3.45537,-0.480305 7.12794,-0.547673 11.44225,-0.975263 3.75157,-0.370965 7.05888,-1.36966 10.48464,-1.954426 1.65851,-0.28214 3.50473,-0.416856 5.49897,-0.485196 1.81656,-0.06154 3.49481,-0.258699 5.10412,-0.24113 z m 1.79671,0.436379 c -7.23656,0.138625 -13.66356,1.470211 -20.32747,2.991194 l -0.18751,-0.125926 c -0.35547,-0.238204 -0.71084,-0.285067 -1.02683,-0.260663 -0.32571,0.02435 -0.61203,0.106414 -0.87862,0.129845 -5.60757,0.467618 -12.60717,2.558724 -17.43482,4.503388 -1.15509,0.464691 -2.59154,0.999667 -3.6775,1.796278 -0.54299,0.398305 -1.00009,0.865933 -1.27948,1.430193 -0.2784,0.565243 -0.37021,1.227137 -0.19547,1.976885 l 0.0148,0.06444 0.0523,0.04199 c 0.75031,0.613078 1.79778,0.885446 2.96273,1.01919 l 0.61209,0.07025 -0.45413,-0.40905 c -0.44427,-0.400259 -1.11756,-0.490067 -1.67042,-0.657986 -0.27741,-0.08398 -0.52324,-0.183533 -0.69996,-0.320203 -0.17672,-0.135699 -0.29025,-0.299709 -0.33073,-0.565243 -0.0651,-0.426617 0.0622,-0.801491 0.32975,-1.161723 0.26754,-0.360232 0.67725,-0.694106 1.14717,-0.990888 0.93789,-0.592572 2.11271,-1.035786 2.84328,-1.348183 5.42987,-2.311741 11.75815,-4.129496 18.23454,-4.820675 -0.65162,0.151322 -1.30323,0.2958 -1.96467,0.449077 -3.39613,0.779032 -6.8515,1.664488 -10.0107,3.137626 -1.50062,0.699968 -2.67545,1.385285 -4.16621,2.355667 -0.59235,0.378783 -1.44138,0.867878 -2.15219,1.430194 -0.71083,0.563288 -1.31305,1.207604 -1.2933,1.958334 0.01,0.710702 0.38502,1.269109 0.97737,1.595176 0.59235,0.326066 1.39203,0.440287 2.3003,0.351452 l 0.74043,-0.07226 -0.6812,-0.299698 c -0.53311,-0.233323 -1.22419,-0.297755 -1.76718,-0.487151 -0.26655,-0.09471 -0.48374,-0.216726 -0.64171,-0.382681 -0.14809,-0.166937 -0.24682,-0.37781 -0.23693,-0.707776 0,-0.215744 0.11846,-0.481287 0.34553,-0.7644 0.22706,-0.283102 0.55286,-0.57793 0.90827,-0.861042 0.72069,-0.566215 1.5796,-1.084594 2.11272,-1.434092 1.50061,-0.987951 2.79391,-1.661562 4.31427,-2.327355 5.0251,-2.206299 10.26744,-2.731514 15.76641,-4.28569 5.29163,-1.494625 11.56068,-1.888049 17.44469,-2.629018 z m -50.64392,0.968429 v 0.009 h -0.005 c -0.0987,0.005 -0.14907,0.06544 -0.17178,0.09761 -0.0218,0.03217 -0.0296,0.05562 -0.0375,0.07807 -0.0148,0.0439 -0.0238,0.08398 -0.0316,0.122038 -0.004,0.02044 -0.007,0.03317 -0.0108,0.04981 -2.04362,0.911814 -4.28468,2.267815 -6.58496,2.680762 -1.77805,0.319232 -3.36455,-0.01072 -4.90565,-0.287021 -1.46015,-0.261625 -2.8887,-0.466635 -4.36266,0.02345 -0.0228,-0.169863 -0.0543,-0.329965 -0.082,-0.465664 -0.0336,-0.160101 -0.0385,-0.279203 -0.0197,-0.381708 0.0938,-0.01664 0.19844,-0.01564 0.33962,-0.03027 0.0928,-0.01002 0.2083,-0.04099 0.30012,-0.126909 0.0918,-0.08589 0.14414,-0.206965 0.17375,-0.357305 l 0.009,-0.043 -0.0108,-0.04299 c -0.10662,-0.406113 -0.41267,-0.658959 -0.77005,-0.756583 -0.35838,-0.09761 -0.76907,-0.07126 -1.1847,0.007 -0.83127,0.156194 -1.68425,0.529123 -2.07619,0.721436 l -0.1086,0.05372 -9.9e-4,0.120074 c -9.8e-4,0.243084 0.079,0.44614 0.21226,0.586719 0.13328,0.141552 0.30309,0.219653 0.47191,0.276278 0.30308,0.100551 0.60518,0.155221 0.80659,0.248937 0.0128,0.117147 0.0424,0.217708 0.0681,0.275305 0.0297,0.06544 0.0395,0.103477 0.0316,0.17279 -3.014078,2.54799 -6.884096,5.516735 -11.320797,6.843441 -2.135421,0.639435 -4.90861,1.055319 -7.331315,0.870803 -2.115678,-0.161074 -3.928275,-0.927428 -5.673726,-1.550267 l -0.310005,-0.110312 0.0474,0.322158 c 0.1007,0.680435 -0.151049,1.152934 -0.518308,1.622506 -0.366268,0.470554 -0.851996,0.90986 -1.141256,1.482909 l -0.195475,0.389526 0.424514,-0.113249 c 0.693049,-0.18646 1.121512,-0.656032 1.438423,-1.172467 0.285311,-0.465663 0.502514,-0.966474 0.764134,-1.39699 5.390378,2.772514 13.100808,0.838583 17.57897,-1.447772 1.339698,-0.684344 2.474048,-1.386257 3.669601,-2.157482 1.21235,-0.781969 2.43851,-1.666442 3.63013,-2.232667 1.42361,-0.677509 3.562,-0.858106 5.37853,-0.463709 0.90926,0.197203 1.73658,0.53693 2.35953,1.013337 0.62296,0.477379 1.04057,1.08265 1.16101,1.842159 0.14907,0.939144 -0.0977,2.013014 -0.56569,2.831102 -0.46697,0.818088 -1.1383,1.355018 -1.79976,1.336468 -0.24286,-0.007 -0.28729,-0.05562 -0.40675,-0.155222 -0.12044,-0.09862 -0.30309,-0.252845 -0.64171,-0.328021 l -0.1086,-0.02445 -0.077,0.08008 c -0.19055,0.196221 -0.29519,0.400259 -0.30803,0.603316 -0.0128,0.203056 0.0682,0.385617 0.18265,0.531077 0.21027,0.26846 0.52916,0.447113 0.79177,0.592572 0.0533,0.245039 0.10958,0.458829 0.17968,0.611124 0.079,0.174754 0.17277,0.305561 0.31098,0.378782 0.13822,0.07326 0.30802,0.05472 0.43242,-0.009 0.12439,-0.06344 0.22509,-0.161074 0.32382,-0.276267 0.19745,-0.229424 0.38305,-0.539867 0.56076,-0.838593 0.17869,-0.298727 0.35145,-0.587702 0.48572,-0.748776 0.75031,-0.895207 1.61119,-1.099246 2.26476,-1.489744 0.41562,0.03317 0.72069,-0.08198 0.94775,-0.22746 l 0.11255,-0.07226 -0.0257,-0.129845 c -0.079,-0.389516 -0.29223,-0.633583 -0.48178,-0.81418 -0.18955,-0.179634 -0.34356,-0.304589 -0.41662,-0.488122 -0.35442,-0.888383 -0.12439,-1.803113 0.33863,-2.623156 0.46302,-0.81907 1.15903,-1.523909 1.67438,-1.936857 1.72966,-1.384312 4.336,-2.191657 5.71223,-3.113232 l -0.13131,-0.356323 c -0.41366,0.04199 -0.69601,-0.08198 -1.16199,-0.09962 z m -0.26062,0.378782 c -0.002,0.006 -0.004,0.01664 -0.005,0.02145 -0.002,0.01002 -0.005,0.01564 -0.002,0.01002 9.9e-4,-0.003 -0.003,-0.01463 0.007,-0.03127 z m 24.23895,1.461432 -0.58248,0.02245 c -5.61745,0.217699 -11.87662,1.768948 -16.45449,3.527153 -1.59539,0.613077 -3.52251,1.36967 -4.40609,2.186776 -0.48079,0.445168 -0.74538,0.907905 -0.81152,1.362835 -0.0671,0.453948 0.0682,0.888373 0.33665,1.253495 0.53805,0.731197 1.58552,1.21932 2.76233,1.332559 l 0.49757,0.0478 -0.33073,-0.370965 c -0.44229,-0.497885 -1.14916,-0.636509 -1.70004,-0.849327 -0.27643,-0.107386 -0.51141,-0.228442 -0.66838,-0.389526 -0.15697,-0.160102 -0.25075,-0.355351 -0.2478,-0.680436 0.002,-0.146431 0.1007,-0.397333 0.2478,-0.631628 0.1471,-0.235277 0.33666,-0.460783 0.4808,-0.594527 1.48186,-1.379431 4.88985,-2.466962 7.82493,-3.371931 3.08022,-0.951832 6.42699,-1.660589 9.32952,-1.944674 0.48375,-0.0468 1.10571,-0.02926 1.69806,-0.07025 0.59235,-0.04099 1.16496,-0.1318 1.56973,-0.461765 z m 28.8277,1.389183 c -10.47471,0.338755 -20.67302,1.35112 -29.06465,4.204672 v 9.72e-4 c -0.01,9.72e-4 -0.01,9.72e-4 -0.01,0.002 l 0.11847,0.371948 c 8.19418,-2.424008 19.09352,-3.483226 28.97584,-4.190019 z m 1.93501,1.790425 c 0.46401,0.445169 0.61213,0.862025 0.57265,1.276927 -0.0491,0.44126 -0.31599,0.90107 -0.73059,1.343302 -0.80957,0.884474 -2.14237,1.669369 -2.95193,2.157492 -4.4525,2.660247 -10.07975,5.03642 -15.10489,6.599375 -2.85312,-0.976236 -5.94325,-1.787489 -9.20114,-2.344924 9.5072,-0.520334 17.59281,-2.454264 23.82228,-6.264529 l 0.54298,-0.333873 -0.6417,-0.02636 v -9.83e-4 9.83e-4 c 0,-0.002 -0.01,-0.008 -0.0301,-0.02536 -0.0491,-0.03608 -0.17768,-0.0927 -0.30606,-0.07026 l -0.14812,0.02445 -0.01,0.07126 c -0.02,9.72e-4 -0.0491,0.003 -0.0992,0 l -0.0692,-0.005 -0.0591,0.04199 c -1.51049,1.098274 -3.48499,1.943692 -5.57795,2.70712 -3.49491,1.27399 -7.23656,2.119408 -11.31394,2.723706 -2.04355,0.303608 -4.23522,0.231369 -6.3381,0.784895 l 0.0591,0.341681 c -3.57384,-0.599407 -7.36489,-0.870804 -11.32376,-0.680435 3.29741,-1.506341 5.84452,-3.613061 9.89224,-4.751363 4.3143,-1.215411 9.30978,-0.91473 14.66063,-1.261302 4.76848,-0.308488 10.62283,-0.686288 14.35466,-2.308805 z m -0.10864,1.225183 -0.0691,0.05853 c -5.04488,4.396002 -12.32093,6.63842 -20.05106,8.44935 l 0.0691,0.382681 c 0.01,-9.72e-4 0.01,-0.002 0.02,-0.003 7.85852,-1.266183 15.08515,-4.010394 20.31755,-8.238487 l 0.0792,-0.06835 -0.01,-0.108369 c -0.01,-0.02836 0,-0.09761 -0.01,-0.185487 -0.01,-0.0439 -0.02,-0.09862 -0.0591,-0.157176 -0.0391,-0.05763 -0.12828,-0.107386 -0.19743,-0.118119 z m -5.5582,0.49593 c -0.01,9.72e-4 -0.0301,0.003 -0.0391,0.005 l -0.0291,0.004 -0.02,0.008 c -6.52571,2.668064 -15.03584,5.257044 -23.72366,5.647542 -0.19743,0.009 -0.53311,-0.05472 -0.86878,-0.05372 -0.33567,0.002 -0.72068,0.0888 -0.95763,0.430516 l -0.22707,0.325095 0.3949,-0.01954 c 10.10948,-0.477379 18.48131,-2.674889 25.83633,-5.873058 l -0.0692,-0.37292 c 0,0 0.02,0.01173 -0.0301,-0.02536 -0.0491,-0.03127 -0.14812,-0.07807 -0.26658,-0.07516 z m -5.66684,0.396351 c -1.71774,0.313379 -3.20849,0.551573 -4.85718,0.979172 -1.29331,0.335829 -2.56689,0.805391 -3.84046,1.070934 -3.50473,0.733152 -7.33527,1.309138 -10.91897,1.362826 l -0.01,0.389526 c 7.4439,0.457856 13.65372,-1.924169 19.7056,-3.421721 z m 11.56078,1.035787 c 1.84612,1.625442 3.02097,4.715243 1.71774,7.468234 -0.0892,0.181579 -0.24674,0.357305 -0.41461,0.542793 -0.17768,0.185488 -0.35537,0.379755 -0.47383,0.628702 -0.4147,0.890327 -0.53316,1.875352 -0.76025,2.72566 -0.227,0.859079 -0.54299,1.552212 -1.32289,1.962233 -0.99717,0.527169 -2.26082,0.536929 -3.56396,0.331919 -1.29331,-0.214771 -2.61619,-0.634554 -3.70216,-0.927428 -1.49074,-0.410021 -3.00123,-0.722418 -3.90951,-1.161713 -1.74751,-0.84152 -3.22833,-2.188731 -5.06463,-3.01658 6.59486,-2.083299 12.68613,-4.675215 17.4941,-8.55382 z m -0.21728,2.283429 c -1.40185,0.299708 -3.35661,0.864951 -4.85718,1.372596 l 0.0792,0.378773 c 1.89553,-0.198176 3.51455,-0.676527 4.90658,-1.386257 z m 0.34555,1.81581 -0.46401,0.141552 c -2.10277,0.644316 -4.67949,0.857133 -7.07851,1.262274 l 0.01,0.38659 c 1.52041,0.176698 2.96175,-0.143506 4.39327,-0.391471 0.51342,-0.0888 1.13537,-0.170835 1.67835,-0.302635 0.53306,-0.13179 1.01682,-0.292874 1.23409,-0.676527 z m -50.49681,0.780987 c 0.38405,0.128863 0.72563,0.327039 1.14324,0.475425 -0.10367,0.03417 -0.20831,0.06735 -0.32184,0.101533 -0.30901,0.09571 -0.64764,0.215744 -0.84509,0.524242 l -0.0879,0.137653 0.12044,0.110312 c 0.11847,0.107386 0.27741,0.157176 0.41366,0.136671 0.13723,-0.02044 0.24188,-0.08589 0.33961,-0.152295 0.1935,-0.133744 0.36923,-0.287011 0.52226,-0.329965 1.58454,-0.452976 2.57473,0.144477 3.49287,0.982098 0.90828,0.813207 1.69808,1.863636 2.8038,2.291236 0.47388,1.576625 0.98725,3.106377 1.40189,4.726935 -0.70094,0.30264 -1.48087,0.5174 -2.23119,0.52716 -0.79967,0 -1.5401,-0.205 -2.13245,-0.75169 -0.2863,-0.27335 -0.70095,-0.966484 -1.16101,-1.542459 -0.44326,-0.566215 -1.16297,-1.438973 -1.82936,-2.307823 -0.66739,-0.869832 -1.28343,-1.744544 -1.50161,-2.239492 -0.31197,-0.706803 -0.30308,-1.863646 -0.12736,-2.689541 z m 12.69505,0.699968 c 3.1197,-0.02345 6.58496,0.487141 9.03332,0.894236 3.31722,0.552544 6.34802,1.030906 9.04319,2.039362 2.32997,0.869832 4.33404,2.379089 6.65409,3.495903 -6.00247,-2.276583 -13.01194,-3.53984 -19.25137,-5.52356 l -0.0592,-0.01854 -0.0592,0.01664 c 0,0 -0.0493,9.72e-4 -0.11847,0.01954 -0.0395,0.01002 -0.0889,0.02536 -0.13821,0.07226 -0.0494,0.0459 -0.079,0.123983 -0.0889,0.188414 v 0.138625 l 0.12834,0.04881 c 5.47924,2.044243 12.56767,3.177654 18.07657,5.07741 0.69111,0.244056 1.45126,0.839565 2.35954,0.693133 l 0.61213,-0.09762 c 1.11553,0.380727 2.35944,0.654078 3.55404,0.966474 2.19167,0.58575 4.1761,1.07385 6.52571,0.62479 0.14812,0.44906 0.0692,0.80051 -0.11846,1.11291 -0.21717,0.3612 -0.59229,0.66384 -0.94776,0.94695 -2.31013,1.82556 -5.30154,3.41684 -9.54669,3.18254 -3.27764,-0.17572 -6.81203,-1.13243 -10.12916,-1.84509 -3.1691,-0.69313 -6.27897,-1.85486 -8.95441,-3.01658 -5.50885,-2.411299 -10.68205,-5.140858 -14.27563,-8.436642 0.80954,0.188414 1.63883,0.334846 2.67544,0.217699 0.67133,-0.07617 1.12546,-0.397334 1.58947,-0.490068 1.03661,-0.207947 2.21144,-0.298736 3.43564,-0.307515 z m -9.97418,0.555481 c -0.0336,9.72e-4 -0.0671,0.002 -0.0997,0.005 -0.26755,0.02044 -0.53312,0.108358 -0.77303,0.229414 -0.48177,0.242103 -0.88655,0.618931 -1.08893,0.989906 l -0.20139,0.369021 0.41562,-0.08489 c 0.51831,-0.105432 0.84312,-0.399278 1.15805,-0.619913 0.31395,-0.221607 0.60815,-0.387562 1.15804,-0.352424 l 0.11255,-0.363159 c -0.21522,-0.124954 -0.44723,-0.175726 -0.6812,-0.172789 z m 48.0327,0.438324 -0.0301,0.009 c -3.45533,1.060201 -8.60885,0.75073 -12.4887,0.967457 l -0.01,0.389516 c 3.79106,0.387572 8.63851,0.206965 11.91615,-0.589646 -0.02,0.003 0.0892,-0.006 0.19743,-0.008 0.10864,-9.82e-4 0.23692,-0.004 0.35547,-0.02245 0.12828,-0.01954 0.26648,-0.0439 0.3652,-0.171818 0.0591,-0.06344 0.0892,-0.158147 0.0792,-0.244056 -0.01,-0.08589 -0.0391,-0.162056 -0.0892,-0.239186 l -0.0591,-0.0908 h -0.10864 z m -38.20662,0.01002 -0.18758,0.33681 c 1.07611,0.880565 2.8038,1.094365 4.30442,1.596148 7.9671,2.663183 15.33204,5.621174 24.51343,6.841464 1.43152,0.18549 2.88278,0.55646 4.38335,0.48813 l 0.02,-0.3905 c -6.24921,-0.91767 -11.85682,-1.93295 -17.13862,-3.699935 -5.33111,-1.777727 -10.64256,-3.52617 -15.89474,-5.172117 z m -8.61869,0.864951 c -0.0592,9.82e-4 -0.12833,0.003 -0.19745,0.007 -0.17276,0.01002 -0.3475,0.02926 -0.5173,0.05953 -0.67923,0.121056 -1.30219,0.404158 -1.56776,0.92352 l -0.29222,0.570123 0.56372,-0.311415 c 0.6417,-0.354379 2.03076,-0.759519 3.24507,-0.65994 l 0.0889,-0.376828 c -0.3949,-0.146432 -0.8589,-0.215755 -1.32292,-0.211846 z m 5.99261,0.02445 -0.01,0.266516 c 0,0.116176 0.0297,0.228442 0.0987,0.315323 0.0592,0.08589 0.14808,0.137653 0.23693,0.167919 7.80915,2.76178 15.4011,6.159073 24.30609,7.916313 2.96175,0.57598 6.05178,1.11291 9.3196,1.07385 l 0.02,-0.3905 c -13.35749,-0.97623 -23.0523,-5.564532 -33.71454,-9.261557 z m 27.44555,1.053366 -0.0391,0.387571 c 3.41583,0.57305 8.04612,1.704507 11.72854,0.678482 l -0.0792,-0.380737 c -3.88977,0.529123 -8.06586,-0.500811 -11.61008,-0.685316 z m -28.0379,0.09761 v 0.189386 c -0.01,0.116176 0.0197,0.228442 0.0889,0.315333 0.0494,0.07126 0.11847,0.115194 0.18757,0.146432 5.73593,3.730199 13.39695,5.877914 20.98888,7.830404 3.66268,0.94695 7.47348,2.12819 11.4324,1.47412 l -0.0301,-0.3905 c -4.63018,0.12692 -7.91774,-0.86885 -11.60016,-1.84509 -2.57671,-0.69313 -5.1436,-1.28864 -7.49322,-1.95248 -4.85724,-1.376494 -9.20114,-3.483204 -12.98231,-5.739293 l -0.0494,-0.02836 z m -4.11683,0.133744 c -0.0691,-9.72e-4 -0.12834,-9.72e-4 -0.19745,0.002 -0.16784,0.006 -0.33567,0.02345 -0.5035,0.05081 -0.66146,0.112267 -1.27749,0.392453 -1.57564,0.884474 l -0.28828,0.475435 0.52621,-0.191351 c 0.66638,-0.244056 2.09789,-0.77806 3.15425,-0.57793 L 131.0649,95.5361 c -0.36528,-0.183534 -0.79967,-0.271397 -1.24393,-0.278232 z m 3.25792,1.045558 c 6.25916,3.602307 13.53516,7.331533 22.33161,9.069243 4.19584,0.82004 9.20114,2.04033 13.21929,0.44907 -0.39496,1.03481 -1.0564,1.84509 -1.49074,2.93847 -3.38628,2.79205 -8.55944,5.71101 -14.83842,5.39861 -2.44833,-0.12691 -4.3636,-0.88837 -5.57794,-2.37225 l -0.0391,-0.0391 -0.0591,-0.0195 c -1.72766,-0.52717 -3.00124,-1.86462 -4.38339,-2.89944 -1.41177,-1.06409 -2.72482,-2.13795 -3.91939,-3.39731 h -0.01 c -2.46813,-2.33321 -4.33403,-5.24239 -5.23243,-9.127813 z m 29.16339,0.381709 -0.0301,0.008 c -0.0792,0.02145 -0.16777,0.07907 -0.20725,0.160101 -0.0391,0.08198 -0.0491,0.16791 -0.0391,0.24992 l 0.01,0.01363 v 0.01273 c 0.02,0.07617 0.0792,0.160102 0.15795,0.203056 0.0792,0.03909 0.15794,0.0449 0.23691,0.03708 h -0.01 l 0.0291,-0.002 c -0.01,9.72e-4 -0.02,9.72e-4 -0.02,0.002 1.85604,-0.03127 3.49491,0.466636 5.16334,0.876657 1.66844,0.410011 3.37646,0.732169 5.33121,0.292864 l -0.0491,-0.390488 c -4.00823,0.253818 -6.59487,-1.290587 -10.54386,-1.462404 z m -32.21399,0.274323 c -0.33566,0.009 -0.66146,0.06053 -0.94776,0.189386 -0.27642,0.127891 -0.5035,0.352425 -0.5726,0.667748 l -0.13822,0.60526 0.46401,-0.419773 c 0.32579,-0.292873 0.85891,-0.361213 1.42164,-0.351442 0.56273,0.01002 1.12547,0.09762 1.54998,0.01002 l 0.56274,-0.121056 -0.52325,-0.248947 c -0.42452,-0.199148 -1.13534,-0.348516 -1.81654,-0.330938 z m 4.57097,1.110962 z m 0,0 0.23694,0.546681 c 0.20732,0.46859 0.7503,0.839565 1.39202,1.210541 0.63184,0.380727 1.37228,0.732177 1.95476,1.034797 7.53271,3.90496 16.48711,7.73182 27.43565,7.14607 h 0.01 l -0.01,-0.3905 c -13.14031,-0.13667 -22.144,-4.34425 -30.49613,-9.244964 z m -3.14933,0.312386 c -0.18758,0 -0.37515,0.01954 -0.55286,0.06835 -0.47388,0.107386 -0.91815,0.370976 -1.09584,0.80052 l -0.1481,0.370975 0.38503,-0.117157 c 0.24682,-0.06835 0.58248,-0.214772 0.96751,-0.341681 0.38503,-0.136671 0.81941,-0.234295 1.24393,-0.234295 l 0.0889,-0.370976 c -0.20732,-0.09761 -0.45413,-0.156193 -0.70094,-0.175716 z m 5.69643,3.182523 0.41464,0.34169 c 1.49076,1.25935 3.949,2.26487 6.06172,3.15325 5.8248,2.46989 13.29827,5.02763 21.01859,4.51023 l -0.01,-0.3905 c -10.44504,-0.19524 -19.55738,-3.51446 -26.54713,-7.58537 l -0.0494,-0.0293 z m -2.88277,0.18549 c 2.88277,4.1002 6.69356,7.27298 10.83997,10.10408 -0.26648,0.32215 -0.67129,0.55646 -1.14517,0.71265 -0.54299,0.17573 -1.17483,0.2343 -1.72769,0.22454 -3.04073,-0.0781 -5.0251,-2.64561 -5.43974,-5.39861 l -0.01,-0.11715 -0.1086,-0.0391 c -0.8589,-0.3124 -1.69807,-0.73218 -2.28055,-1.33745 -0.5726,-0.60527 -0.90826,-1.39602 -0.76017,-2.54799 0.079,-0.5955 0.3554,-1.03482 0.63183,-1.60103 z m 5.34102,2.34298 -0.0692,0.01 c -0.0296,0.01 -0.0987,0 -0.18756,0.01 -0.0494,0.01 -0.0987,0.0195 -0.15797,0.0585 -0.0592,0.0488 -0.10859,0.12692 -0.11847,0.19525 l -0.0197,0.11715 0.0987,0.0684 c 1.05635,0.78098 2.44837,1.5815 3.87988,2.26488 1.23406,0.59549 2.59648,1.17148 3.86023,1.66936 2.67543,1.04458 5.73589,2.17702 8.77661,1.96225 l 0.01,-0.3905 c -6.51589,-0.81028 -11.47194,-3.15325 -16.01329,-5.92577 z m 1.11559,2.35273 -0.0691,0.24407 c -0.0197,0.0976 -0.0297,0.19523 0.01,0.27334 0.0395,0.0879 0.0987,0.13667 0.13821,0.1562 0.0297,0.0195 0.0395,0.0293 0.0395,0.0293 l 0.01,0.0976 0.0987,0.0585 c 1.32291,0.67361 2.7248,1.50341 4.26489,2.14773 1.44134,0.61503 3.11969,1.44483 4.82761,1.28864 l 0.0301,-0.3905 c -3.54422,-0.7517 -6.32826,-2.26488 -9.13204,-3.77805 z m -3.49486,1.17148 h -0.0592 l -0.19745,0.0293 0.0297,0.19525 c 0.21719,1.45459 0.8984,2.74323 1.95476,3.58279 1.05635,0.82981 2.49774,1.21054 4.1958,0.87862 l -0.0494,-0.3905 c -1.56973,0.12691 -2.78406,-0.25382 -3.69233,-0.97624 -0.91813,-0.72242 -1.53023,-1.79628 -1.8264,-3.07515 -0.0197,-0.0781 -0.079,-0.16596 -0.16784,-0.20501 -0.0592,-0.0293 -0.11847,-0.0391 -0.18758,-0.0391 z m -0.0297,0.34169 v 0.01 z m 1.84615,0.53693 -0.36528,0.11715 c 0.0889,0.82981 0.60223,1.51318 1.23406,1.97201 0.62198,0.4686 1.35254,0.72241 1.94489,0.64431 l 0.0395,-0.38072 c -1.32291,-0.42956 -2.21143,-1.24959 -2.85315,-2.35275 z"
     transform="matrix(0.97816936,0,0,0.977671,1.4251451,1.4243622)" /><path
     id="path7203-6"
     style="fill:none;stroke:#db247f;stroke-width:1.53385;stroke-linecap:butt;stroke-linejoin:miter;stroke-dasharray:none;stroke-opacity:1;filter:url(#filter3731)"
     d="M 91.505662,0.86194938 C 90.435281,0.81173902 89.367827,0.75759001 88.258381,0.75879265 l 9.92e-4,-0.005011 -0.248932,0.001002 c -0.871748,0.005011 -1.759241,0.0299659 -2.665535,0.0819802 -1.105717,0.0634394 -2.217398,-0.0513128 -3.353713,0 C 72.389214,1.268092 63.412245,3.5603601 56.350467,6.8090904 52.420228,8.617074 48.744624,9.9720822 45.466966,12.094427 c -3.447477,2.231685 -6.674745,4.807015 -9.268253,7.690823 -6.457582,0.666766 -9.952503,5.089095 -13.087991,9.042855 -0.445249,0.562306 -1.060389,1.086578 -1.484903,1.665491 -0.620983,0.844446 -0.980325,1.82458 -1.57958,2.634851 -1.047281,1.418477 -2.237052,2.660287 -3.352942,4.096343 -2.254269,2.901367 -4.516786,7.653671 -4.866377,11.928617 -0.106622,0.08298 -0.190344,0.182602 -0.22964,0.29096 -0.05111,0.142533 -0.05803,0.28217 -0.06384,0.412987 -0.01173,0.261635 -0.01633,0.472399 -0.160419,0.630546 l -0.05031,0.05472 -9.82e-4,0.07416 c -0.02215,2.191657 -0.78547,4.311958 -0.690874,6.939011 0.03347,0.927429 0.271491,1.849004 0.295974,2.731524 0.09551,3.439289 0.333577,6.196329 1.295742,8.751134 1.273363,3.379728 2.747092,6.323057 4.461656,8.920826 l 0.009,0.01373 0.01132,0.01162 c 2.866482,3.068314 6.559845,5.997021 12.388077,5.919891 0.800653,-0.01072 1.592388,-0.216726 2.361452,-0.195249 2.54414,0.07026 5.299561,1.537579 8.197131,1.561011 1.688958,0.01393 3.322054,-0.36377 4.76226,-0.992622 m 2.997357,0.753907 c -0.204645,1.054328 -0.36747,2.129771 -0.436149,3.198651 -0.16981,2.646576 0.162834,5.216164 1.498583,7.109094 0.809543,1.146099 1.864951,1.72882 3.023985,2.394613 3.94011,2.284389 8.836944,3.904969 15.216536,3.446139 0.949228,-0.068 1.574429,-0.29302 2.183104,-0.51938 m 32.074877,-3.302605 c -0.0213,-0.0461 -0.0593,-0.09541 -0.082,-0.142052 -2.259257,0.931818 -5.197937,2.102952 -7.393658,2.591195 -0.448146,0.09832 -0.902105,0.153477 -1.353016,0.199442 0.08528,0.19466 0.145035,0.4043 0.247007,0.58764 0.542001,0.96648 1.479773,1.82561 2.660514,2.32349 l -0.01002,0.0195 0.187619,0.0684 c 0,0 1.08391,0.40029 1.763139,0.47839 0.331713,0.0391 0.875778,0.01 1.369402,-0.01 0.382052,-0.0195 0.611121,-0.0391 0.739461,-0.0488 3.056512,6.43339 8.226762,10.77782 13.969572,14.50703 3.23817,2.61632 5.9629,5.77928 9.17145,8.48344 l 0.35556,0.30259 2.44032,-6.95751"
     transform="matrix(0.97816936,0,0,0.977671,1.4251451,1.4243622)" /></svg>
